<mxfile host="65bd71144e">
    <diagram id="7-f1Dm9CVQBz9anzKxVX" name="Page-1">
        <mxGraphModel dx="1052" dy="718" grid="1" gridSize="10" guides="1" tooltips="1" connect="1" arrows="1" fold="1" page="1" pageScale="1" pageWidth="850" pageHeight="1100" math="0" shadow="0">
            <root>
                <mxCell id="0"/>
                <mxCell id="1" parent="0"/>
                <mxCell id="2" value="Scrapper(ABC)" style="swimlane;fontStyle=0;childLayout=stackLayout;horizontal=1;startSize=30;horizontalStack=0;resizeParent=1;resizeParentMax=0;resizeLast=0;collapsible=1;marginBottom=0;" parent="1" vertex="1">
                    <mxGeometry x="40" y="40" width="140" height="350" as="geometry">
                        <mxRectangle x="40" y="40" width="110" height="30" as="alternateBounds"/>
                    </mxGeometry>
                </mxCell>
                <mxCell id="3" value="@abstract&#10;get _product_name&#10;set _product_name" style="text;strokeColor=none;fillColor=none;align=left;verticalAlign=middle;spacingLeft=4;spacingRight=4;overflow=hidden;points=[[0,0.5],[1,0.5]];portConstraint=eastwest;rotatable=0;" parent="2" vertex="1">
                    <mxGeometry y="30" width="140" height="80" as="geometry"/>
                </mxCell>
                <mxCell id="4" value="@abstract&#10;get_product_price&#10;set_product_price" style="text;strokeColor=none;fillColor=none;align=left;verticalAlign=middle;spacingLeft=4;spacingRight=4;overflow=hidden;points=[[0,0.5],[1,0.5]];portConstraint=eastwest;rotatable=0;" parent="2" vertex="1">
                    <mxGeometry y="110" width="140" height="80" as="geometry"/>
                </mxCell>
                <mxCell id="7" value="..." style="text;strokeColor=none;fillColor=none;align=left;verticalAlign=middle;spacingLeft=4;spacingRight=4;overflow=hidden;points=[[0,0.5],[1,0.5]];portConstraint=eastwest;rotatable=0;" parent="2" vertex="1">
                    <mxGeometry y="190" width="140" height="80" as="geometry"/>
                </mxCell>
                <mxCell id="8" value="@abstract&#10;get_ product_equivalent&#10;set_ product_equivalent" style="text;strokeColor=none;fillColor=none;align=left;verticalAlign=middle;spacingLeft=4;spacingRight=4;overflow=hidden;points=[[0,0.5],[1,0.5]];portConstraint=eastwest;rotatable=0;" vertex="1" parent="2">
                    <mxGeometry y="270" width="140" height="80" as="geometry"/>
                </mxCell>
                <mxCell id="9" value="&lt;p style=&quot;color: rgb(29 , 34 , 40) ; font-family: &amp;#34;helvetica neue&amp;#34; , &amp;#34;helvetica&amp;#34; , &amp;#34;arial&amp;#34; , sans-serif ; font-size: 13px ; text-align: left ; background-color: rgb(255 , 255 , 255)&quot;&gt;do kartmapu:&lt;br&gt;&lt;/p&gt;&lt;p style=&quot;color: rgb(29 , 34 , 40) ; font-family: &amp;#34;helvetica neue&amp;#34; , &amp;#34;helvetica&amp;#34; , &amp;#34;arial&amp;#34; , sans-serif ; font-size: 13px ; text-align: left ; background-color: rgb(255 , 255 , 255)&quot;&gt;- brac jako nazwe kod SKU&lt;/p&gt;&lt;p style=&quot;color: rgb(29 , 34 , 40) ; font-family: &amp;#34;helvetica neue&amp;#34; , &amp;#34;helvetica&amp;#34; , &amp;#34;arial&amp;#34; , sans-serif ; font-size: 13px ; text-align: left ; background-color: rgb(255 , 255 , 255)&quot;&gt;- ceny niepoprawne&lt;/p&gt;&lt;p style=&quot;color: rgb(29 , 34 , 40) ; font-family: &amp;#34;helvetica neue&amp;#34; , &amp;#34;helvetica&amp;#34; , &amp;#34;arial&amp;#34; , sans-serif ; font-size: 13px ; text-align: left ; background-color: rgb(255 , 255 , 255)&quot;&gt;do locoboxu:&lt;/p&gt;&lt;p style=&quot;color: rgb(29 , 34 , 40) ; font-family: &amp;#34;helvetica neue&amp;#34; , &amp;#34;helvetica&amp;#34; , &amp;#34;arial&amp;#34; , sans-serif ; font-size: 13px ; text-align: left ; background-color: rgb(255 , 255 , 255)&quot;&gt;- nazwe brac po kodzie produktu&lt;/p&gt;&lt;p style=&quot;color: rgb(29 , 34 , 40) ; font-family: &amp;#34;helvetica neue&amp;#34; , &amp;#34;helvetica&amp;#34; , &amp;#34;arial&amp;#34; , sans-serif ; font-size: 13px ; text-align: left ; background-color: rgb(255 , 255 , 255)&quot;&gt;gwarancja w latach&lt;/p&gt;&lt;p style=&quot;color: rgb(29 , 34 , 40) ; font-family: &amp;#34;helvetica neue&amp;#34; , &amp;#34;helvetica&amp;#34; , &amp;#34;arial&amp;#34; , sans-serif ; font-size: 13px ; text-align: left ; background-color: rgb(255 , 255 , 255)&quot;&gt;dodać:&lt;/p&gt;&lt;p style=&quot;color: rgb(29 , 34 , 40) ; font-family: &amp;#34;helvetica neue&amp;#34; , &amp;#34;helvetica&amp;#34; , &amp;#34;arial&amp;#34; , sans-serif ; font-size: 13px ; text-align: left ; background-color: rgb(255 , 255 , 255)&quot;&gt;- alplast&lt;/p&gt;&lt;p style=&quot;color: rgb(29 , 34 , 40) ; font-family: &amp;#34;helvetica neue&amp;#34; , &amp;#34;helvetica&amp;#34; , &amp;#34;arial&amp;#34; , sans-serif ; font-size: 13px ; text-align: left ; background-color: rgb(255 , 255 , 255)&quot;&gt;- promag&lt;/p&gt;&lt;p style=&quot;color: rgb(29 , 34 , 40) ; font-family: &amp;#34;helvetica neue&amp;#34; , &amp;#34;helvetica&amp;#34; , &amp;#34;arial&amp;#34; , sans-serif ; font-size: 13px ; text-align: left ; background-color: rgb(255 , 255 , 255)&quot;&gt;- techmark&lt;/p&gt;&lt;p style=&quot;color: rgb(29 , 34 , 40) ; font-family: &amp;#34;helvetica neue&amp;#34; , &amp;#34;helvetica&amp;#34; , &amp;#34;arial&amp;#34; , sans-serif ; font-size: 13px ; text-align: left ; background-color: rgb(255 , 255 , 255)&quot;&gt;sprawdzic wykonanie:&amp;nbsp;&lt;a target=&quot;_blank&quot; href=&quot;https://bakpol.pl/szafy-typ-l/319-l400-22-szafa-ubraniowa.html&quot; class=&quot;yiv4452507523moz-txt-link-freetext&quot; style=&quot;color: rgb(50 , 91 , 170)&quot;&gt;https://bakpol.pl/szafy-typ-l/319-l400-22-szafa-ubraniowa.html&lt;/a&gt;&lt;/p&gt;" style="text;html=1;strokeColor=#666666;fillColor=#f5f5f5;align=center;verticalAlign=middle;whiteSpace=wrap;rounded=0;fontColor=#333333;" vertex="1" parent="1">
                    <mxGeometry x="10" y="520" width="240" height="370" as="geometry"/>
                </mxCell>
                <mxCell id="11" value="" style="shape=flexArrow;endArrow=classic;html=1;exitX=1;exitY=0.5;exitDx=0;exitDy=0;" edge="1" parent="1" source="3">
                    <mxGeometry width="50" height="50" relative="1" as="geometry">
                        <mxPoint x="290" y="420" as="sourcePoint"/>
                        <mxPoint x="340" y="110" as="targetPoint"/>
                    </mxGeometry>
                </mxCell>
                <mxCell id="12" value="&lt;h1&gt;Kolumny&lt;/h1&gt;&lt;p&gt;DYSTRYBUTOR&lt;span&gt;&#9;&lt;/span&gt;&lt;/p&gt;&lt;p&gt;PRODUCENT&lt;span&gt;&#9;&lt;/span&gt;&lt;/p&gt;&lt;p&gt;MIESIĄC&lt;span&gt;&#9;&lt;/span&gt;&lt;/p&gt;&lt;p&gt;ROK&lt;span&gt;&#9;&lt;/span&gt;&lt;/p&gt;&lt;p&gt;MODEL&lt;span&gt;&#9;&lt;/span&gt;&lt;/p&gt;&lt;p&gt;ODPOWIEDNIK&lt;span&gt;&#9;&lt;/span&gt;&lt;/p&gt;&lt;p&gt;CENA KATALOGOWA NETTO&lt;/p&gt;&lt;p&gt;CENA SKLEPU INTERNETOWEGO NETTO&lt;span&gt;&#9;&lt;/span&gt;&lt;/p&gt;&lt;p&gt;RABAT&lt;span&gt;&#9;&lt;/span&gt;&lt;/p&gt;&lt;p&gt;CENA NETTO PO RABACIE&lt;span&gt;&#9;&lt;/span&gt;&lt;/p&gt;&lt;p&gt;WYSOKOŚĆ&lt;span&gt;&#9;&lt;/span&gt;&lt;/p&gt;&lt;p&gt;SZEROKOŚĆ&lt;span&gt;&#9;&lt;/span&gt;&lt;/p&gt;&lt;p&gt;GŁĘBOKOŚĆ&lt;span&gt;&#9;&lt;/span&gt;&lt;/p&gt;&lt;p&gt;CECHY CHARAKTERYSTYCZNE&lt;span&gt;&#9;&lt;/span&gt;&lt;/p&gt;&lt;p&gt;ŹRÓDŁO&lt;span&gt;&#9;&lt;/span&gt;CZAS REALIZACJI&lt;span&gt;&#9;&lt;/span&gt;GWARANCJA [lata]&lt;span&gt;&#9;&lt;/span&gt;&lt;/p&gt;&lt;p&gt;KOMENTARZ&lt;/p&gt;" style="text;html=1;spacing=5;spacingTop=-20;whiteSpace=wrap;overflow=hidden;rounded=0;fillColor=#f5f5f5;fontColor=#333333;strokeColor=#666666;" vertex="1" parent="1">
                    <mxGeometry x="310" y="520" width="190" height="510" as="geometry"/>
                </mxCell>
                <mxCell id="15" value="" style="endArrow=classic;html=1;exitX=0.5;exitY=0;exitDx=0;exitDy=0;" edge="1" parent="1" source="12">
                    <mxGeometry width="50" height="50" relative="1" as="geometry">
                        <mxPoint x="405" y="430" as="sourcePoint"/>
                        <mxPoint x="120" y="440" as="targetPoint"/>
                        <Array as="points">
                            <mxPoint x="405" y="440"/>
                        </Array>
                    </mxGeometry>
                </mxCell>
                <mxCell id="16" value="" style="endArrow=classic;html=1;exitX=0.423;exitY=-0.004;exitDx=0;exitDy=0;entryX=0.511;entryY=1.047;entryDx=0;entryDy=0;entryPerimeter=0;exitPerimeter=0;" edge="1" parent="1" source="9" target="8">
                    <mxGeometry width="50" height="50" relative="1" as="geometry">
                        <mxPoint x="230" y="650" as="sourcePoint"/>
                        <mxPoint x="100" y="400" as="targetPoint"/>
                    </mxGeometry>
                </mxCell>
                <mxCell id="17" value="Bakpol_Scrapper(Scrapper)" style="swimlane;fontStyle=0;childLayout=stackLayout;horizontal=1;startSize=30;horizontalStack=0;resizeParent=1;resizeParentMax=0;resizeLast=0;collapsible=1;marginBottom=0;" vertex="1" collapsed="1" parent="1">
                    <mxGeometry x="355" y="40" width="205" height="30" as="geometry">
                        <mxRectangle x="355" y="40" width="185" height="350" as="alternateBounds"/>
                    </mxGeometry>
                </mxCell>
                <mxCell id="18" value="@abstract&#10;get _product_name&#10;set _product_name" style="text;strokeColor=none;fillColor=none;align=left;verticalAlign=middle;spacingLeft=4;spacingRight=4;overflow=hidden;points=[[0,0.5],[1,0.5]];portConstraint=eastwest;rotatable=0;" vertex="1" parent="17">
                    <mxGeometry y="30" width="205" height="80" as="geometry"/>
                </mxCell>
                <mxCell id="19" value="@abstract&#10;get_product_price&#10;set_product_price" style="text;strokeColor=none;fillColor=none;align=left;verticalAlign=middle;spacingLeft=4;spacingRight=4;overflow=hidden;points=[[0,0.5],[1,0.5]];portConstraint=eastwest;rotatable=0;" vertex="1" parent="17">
                    <mxGeometry y="110" width="205" height="80" as="geometry"/>
                </mxCell>
                <mxCell id="20" value="..." style="text;strokeColor=none;fillColor=none;align=left;verticalAlign=middle;spacingLeft=4;spacingRight=4;overflow=hidden;points=[[0,0.5],[1,0.5]];portConstraint=eastwest;rotatable=0;" vertex="1" parent="17">
                    <mxGeometry y="190" width="205" height="80" as="geometry"/>
                </mxCell>
                <mxCell id="21" value="@abstract&#10;get_ product_equivalent&#10;set_ product_equivalent" style="text;strokeColor=none;fillColor=none;align=left;verticalAlign=middle;spacingLeft=4;spacingRight=4;overflow=hidden;points=[[0,0.5],[1,0.5]];portConstraint=eastwest;rotatable=0;" vertex="1" parent="17">
                    <mxGeometry y="270" width="205" height="80" as="geometry"/>
                </mxCell>
                <mxCell id="22" value="Kartmap_Scrapper(Scrapper)" style="swimlane;fontStyle=0;childLayout=stackLayout;horizontal=1;startSize=30;horizontalStack=0;resizeParent=1;resizeParentMax=0;resizeLast=0;collapsible=1;marginBottom=0;" vertex="1" collapsed="1" parent="1">
                    <mxGeometry x="347.5" y="170" width="205" height="30" as="geometry">
                        <mxRectangle x="355" y="100" width="185" height="350" as="alternateBounds"/>
                    </mxGeometry>
                </mxCell>
                <mxCell id="23" value="@abstract&#10;get _product_name&#10;set _product_name" style="text;strokeColor=none;fillColor=none;align=left;verticalAlign=middle;spacingLeft=4;spacingRight=4;overflow=hidden;points=[[0,0.5],[1,0.5]];portConstraint=eastwest;rotatable=0;" vertex="1" parent="22">
                    <mxGeometry y="30" width="205" height="80" as="geometry"/>
                </mxCell>
                <mxCell id="24" value="@abstract&#10;get_product_price&#10;set_product_price" style="text;strokeColor=none;fillColor=none;align=left;verticalAlign=middle;spacingLeft=4;spacingRight=4;overflow=hidden;points=[[0,0.5],[1,0.5]];portConstraint=eastwest;rotatable=0;" vertex="1" parent="22">
                    <mxGeometry y="110" width="205" height="80" as="geometry"/>
                </mxCell>
                <mxCell id="25" value="..." style="text;strokeColor=none;fillColor=none;align=left;verticalAlign=middle;spacingLeft=4;spacingRight=4;overflow=hidden;points=[[0,0.5],[1,0.5]];portConstraint=eastwest;rotatable=0;" vertex="1" parent="22">
                    <mxGeometry y="190" width="205" height="80" as="geometry"/>
                </mxCell>
                <mxCell id="26" value="@abstract&#10;get_ product_equivalent&#10;set_ product_equivalent" style="text;strokeColor=none;fillColor=none;align=left;verticalAlign=middle;spacingLeft=4;spacingRight=4;overflow=hidden;points=[[0,0.5],[1,0.5]];portConstraint=eastwest;rotatable=0;" vertex="1" parent="22">
                    <mxGeometry y="270" width="205" height="80" as="geometry"/>
                </mxCell>
                <mxCell id="27" value="@dataclass" style="text;html=1;strokeColor=none;fillColor=none;align=center;verticalAlign=middle;whiteSpace=wrap;rounded=0;" vertex="1" parent="1">
                    <mxGeometry x="420" y="10" width="60" height="30" as="geometry"/>
                </mxCell>
                <mxCell id="28" value="@dataclass" style="text;html=1;strokeColor=none;fillColor=none;align=center;verticalAlign=middle;whiteSpace=wrap;rounded=0;" vertex="1" parent="1">
                    <mxGeometry x="412.5" y="140" width="60" height="30" as="geometry"/>
                </mxCell>
                <mxCell id="29" value="..." style="text;html=1;strokeColor=none;fillColor=none;align=center;verticalAlign=middle;whiteSpace=wrap;rounded=0;" vertex="1" parent="1">
                    <mxGeometry x="420" y="100" width="60" height="30" as="geometry"/>
                </mxCell>
                <mxCell id="30" value="" style="shape=image;verticalLabelPosition=bottom;labelBackgroundColor=#ffffff;verticalAlign=top;aspect=fixed;imageAspect=0;image=data:image/png,iVBORw0KGgoAAAANSUhEUgAAAZUAAAIUCAYAAADSX7HbAAAgAElEQVR4nOzdeVyNaf/A8Y+RigotWpFIGUsoa4ylscQoRpgJz8OM7bENw4xlxBhlLDO2H8YztuF50DzI2IYs01jLVqjGqJC1TSXOiQozvz/OKZWWEyeJ7/v16vXqnOu6r/t77k7ne67rvu77qlDTrtnfCCGEEFrwTlkHIIQQ4s0hSUUIIYTWSFIRQgihNTplHUBJDRvdFs/aqt+vBYbw+dGyjUcIIcQzJeqpWLqNZsPe3QT/Z0JpxVOsdatC6P3NRSIUZRaCBixwn76CoCNBhIeqf4IDObFhDE3KOrSyZNWZBdsDObt9Cu3yFFjQ//stnD2yGp+2ZRSbEEIrNEwq5nSZtJSNX7+PKVmlG5EmMv7icVnHUJShM/HtV5vkAwvo7+KGU6/PmbA6kMADJ4ko69jKTFN8l0+lh94JJvZbyMk8ZYls++JzlkZZMmDeYgZZlVGIQoiXpuHwlzmtGxpwY9u3HLb/gokmpReQg7MlE7rUoqaxOrTHqfy2PIr/u6vZ9o3b1eGz9y2wqPwO8BdZ95IJ8r/KqlvP6rTuWI/R75thXCm7ThJ7forlP3ezY7BmQq9a1MxuQ6Hg9M5LfH9JwxdRxxA9xRV2zTtAFED8RX7fcJHf81SyoP+3vox2tcfMSPVMpuISmzqNYxkAXqw7MgR+3EjmwBG0t9YFIDl4AW7jDwDgPnsFUzo1zLX9TYKWT2VqQCIwhV2h7Unecwnrbq2w0QMyEzix/HPG+CcCMOjH3Uw1vcDWrGYMcDQE4EHUbqYOXPrsQ9/KgwXLR+BmZ4gegOIm+3P2oVmcANaTx+Jul0rQOL98CSVbIptHbcTtyFhGz/Zi86gADQ+2EOJ1omFPJZK5w0cwckVY6UZjZ81X/WvBHxGMmRlC75mn+Pbn6wRqmFAAYpPSOL39HEOmh9D7mzCOPzLBvY8pNtkVrCwY5m7E7e1nGDg9hIFzz7HqyF0icvZRleF9bOB0mLqNc3y/9zZhN0vwOq4ryTRqyIBvO2NdSJUWsxcwpbslcdm9Ge+prPrxANvy1DKk5XhvqgYvob+LG+4jZzJz+bMP6vCoK5zcMFW9/QKCFLXpMXQELXJv38mEk7O9cXIZwdIIQ9qP92VK7p6AXXvcUtao2p8eREodT3yXd1cXNsV3+Vjc9C6w0FvV41oXZUKPyfnaKCZOaMqETvboRZ1gYkhRBy6AVcEJVG3RHZ+Ceiu95hMUGkRQTnxCiNdNqcz+atu6xXM/mujbxQbjpOt8+2sGd54AT/7m9KVMokuw7/SYNNZdekoaQMZj/i/8ARjpYZenVgV0jVQ9oXTlU4LOKDmfp1yHSkbqQ5PxlNPhDwhSliCIDb4sDU7FuvtMAoO3s/X74Xg65K7QmU/b1oaI3QzO7s1En2W9/x7i8jWVGR2YUycu9CQncx2MOP+lzNxwVr39AaaG3gQjExxzbZ8c4Y/fwUTgKutnnyBWz552o3Lv4QqB4/eo2j/ox9YIJWZNutMfwMWLFnZZhG+ZxbZoIP4iy2af4c5zbRQdJ3SngTVcDv2h2EN3LuAKd7DHaWABhXun4ebilqcHJIR4vZRKUgk5fa7IxwXTw7GGDsp4BXdeYt8GtUxZ+Hkzts1ry655bdnlnm+sLj6Rn09nYterBVtmNWZhd31s8gwCPmDt3gQMXJzZOKcZK/tVpbl+SaNIZPP4gbT0XsLW0FTMXAfi57+brdNbqstbYmMGcdfXFttSUXWsvXzYemA3Z7MnA3jUfq6OIiXXoFv8VZIVYGrllauCMs/x3hyfCkYmOAE4GGKEIS2/yDXhYK/bs16fhnHibYkpShT5M2ZBQi8SpwAjUwsNKgshXjeldp1KdiLRLKEAVED3ZXeqU5WvRzhgnnaDVQtO0Xt6CL0DU5+rFrTzEv2/CWN39GPM2zXnh6/q4JErsUSfiWXQzHP8cPo+lRq+y+yvGjD6RU4eR+/Bb/xI3FxHsDQCGngM4dMXf3V5WY1h6WQ3rFNOsGrcCJxc3HDaU5IxOk2lcmK6m6r9XD+9Z5fCrnLRM2pYujsQQpSKUr34UfOEApBBxN0nGNYwKPCbsEZqGWJT6R5h2+4RlKa6pVnzGnqF7C6TdT9HMXTOn0TpWOHWLl/5k8cc+DWWkXPCOKU0pn3HEndXcrnK+uupoGeoHoY7y51ksK7j/eJNdrLHWi+Bc4sWsj7kKgCepobPVTMy7fzsgVU9zIwgJT7XSXAjwzzHe5CVCShSCQc4kkAKJpi5vGSvIVqJAl30TDWprIoxTw9LCFFuvFZX1B84cod71nX56oPsIakK2DWsglu+z0oDQx0qAbqGFameuyDjKekY4diuEgaATf0aDG9okHfjhsZ85qSHnTpH2NjpU71SBunZJ+qtqvJZuyo4qPdZ3coQY31Iu5ep8etwHzcFn6HtaKHu3Ti29WapiyXEXWEXAL+zOeQmNPFm0/TuqnMgVk3xHOeNp6Y7SckiC0scvTpjjQUtvOcw2uX5aXlmLkNY0KseUI9PZ7fHLvMKJ3/MXcMezx+H08IKrLv5MKCJIckR6gkD8RvZek5Jg+6++PaqB4C1S3cmfD+lZD2u0JPEJutSp4lX8XUn22NHArF7SrIDIcTr4rW6oj49Jo5vt8GEXk35ob063z1KJnBNjOpEuZ01m0fakpNj2rdiY3tAcYPvvo3jRHwiP582ZlinFmzpBCgSCNgeS6U+uXOnHo37OPB+ZfVzj9O5feJP5uVMF36Hmu0a8V2v7CnNGSRG/8n3B0pwM2frhrh3cmfA+OwnsngQewLfr/zI7rudnD2VhboLmOAxlW39pgKQqbjAqhX+mu3j4BLWeSxhYveZBHYHFFfYuvoMbkPzDiLGRiTg9NUawr9BPaV4Jgvjc1VQXCLcyJP1e1Vnxh9E7WZqzonwRDaP8sXmx8/x/EbdBlk8SL7Aes2PBnCAzRFDaO/anSlWAXn3n0dTfNvaQ2wgm0ILKO41n6BvWkG+6cpCiNdHBbn1/ZtqCrtC3WFP4ec/Bv24m6mOV1jQaRKbSz0eL9YdGYtj1EoGjAp4bpYbQLvZG1jaDQInD2VmkVOPhRCvq9dq+Eu8yQIYNn03cY4jWPe9x3PX71h7L2aBhwnhy6dKQhGiHHuthr/EGy5kKQNGnsS9DhjlKbDAOn4PM0de4vfQxEI2FkKUBzL8JYQQQmtk+EsIIYTWSFIRQgihNZJUhBBCaI0kFSGEEFojSUUIIYTWSFIRQgihNZJUhBBCaI0kFSGEEFqj4RX1dvSZ9SWj29fESA9AyY3j/nzus4eE0oxOCCFEuaJZT6WVJx81g1Orv6Jvx+GM3XwHk/eGMKegJV+FEEK8tV7wNi0erNg7gvpXfqD7xEDtR1WG2n/cjC+N7xCQYYOXQ2XgL+5FR/HtT2lkL7tu3tCCr3vVpqaxuqP36B5he2P4JuxpTjsOztZM6FWLmpXfAf4iS6Hg9M5LfJ99i/3qhnz9j/o4W6sXdnn8iMSwaEbufPiKXqkQQmjfC95Q0gJDI0hNCNNuNK+L2nVpH3qBIdMzeVzDFL/x7/JFn3OM3PkYgKR76YQFhvPtpUzuUIHuHzdlTK9adA+7jmqVj6oM72MDJ8MYcuAxafoVae1ggEGu1X779n+Xxlxn9jd3OZ9RATs7A5rrPCqLVyuEEFrzQifqW/u1xiHzGqc2JGk7ntfD42QCt2eSBqTfTSHg0iMsGtagdXZ5vJJ14ZnceQI8+ZsDJ5NQVtajZp5GdKhkpD68GU85Hf5AtdBYLrqVK6Jal/JvYmOV7IiRe3sKIcq3EvdULPvNZc57xkRvm8GyN/UsfcYjcqfLE/GP+LKpEY2B0wDVDZnuXRdnKwN0K2XXSs21xQPW7k3g6w+d2ej0iNvh11i79wHnM57V2LEthjZjHPnya1uG37zB7p2J7IiXpCKEKN9K1lNpNYElIx1RHl/LtBVvaC+lWJX4YmQTnHWS+M+aUwycHkLv1TfI1wkh+kwsg2ae44fT96nU8F1mf9WA0Va5KqSlMeXb08z47zWS9G0Y8lkLVnavhBBClGeaJ5VWE/D3ex+TSxsZ6xP4Zk8l1q+Mea6H7a0qg0JBJACG2BhnEXU0gT23/iYdMKhRGd2C2nnymAO/xjJyThinlMa076j/XJXIS3eZsiSU2aGZ1HSpQfvSeD1CCPGKaJZULD1YMUuVUMZNfAuuTalkjufHVbDRAYMapng1rEzipbuqoS+e8vixLnZOVagOVLeqyvROZnmTilVVPmtXBQdD1cPqVoYY60PavczsHdD3A2PcalRQnVPRr4SzcUVQZBL7yl6kEEJon2bnVIb2wNkIaD6EjUeH5ClSnF9D94l7SiG0MqSIJ7KyAz/4Zk8p/pNv1TO/ss+XfNWrKRvnAY/ucWp7FFEfW+Rq4B1qtmvEd73Uh/dxBonRf/L9gWfnTIyta+E9qQETAPgLZVIiAT+lcOdVvD4hhCglspxwPu0/bsaXdZP47ts4TpR1MEIIUc7Ivb+EEEJojSQVIYQQWiPDX0IIIbRGeipCCCG0RpKKEEIIrZGkIoQQQmskqQghhNAaSSpCCCG0RpKKEEIIrZGkIoQQQmskqQghhNAajW4oaek2nClD3Whua4geAEriTwcwbUoAMaUanhBCiPJEs56KiQ0mqcf5bsJwXDsOZ9a2JAxbezNjXClHJ4QQolx5wdu0eLBi7whMT3jiPV/7QQkhhCifSn5OxbIxoxf2o5HubSIDSyEiIYQQ5ZZmi3QBMAH/o+9jC6C4zaEN3zH3QmmFJYQQojwq+fCXZWN6DhzChN52pO6fjff8yFIKTQghRHlT8uGvhEj2Lf6SfTG62DZ8vxRCEkIIUV694HUq5hjqajcQIYQQ5Z9GSWXwrLnMGOhMfQDs6DnpSzrYZnHj0m+lGpwQQojyRaMT9Vm65nQYOpsPRqmfUNwj+re1TJPzKUIIIXKR5YSFEEJojdz7SwghhNZIUhFCCKE1klSEEEJojSQVIYQQWlOC27QI8faytDTHwrwGVapUzvP8w4ePSEy6S0JCUhlF9nqS4/X2KrOkoqenV1a7FqJELC1qUKOGGVeuxvLoUUaessqV9bGvZ4eerh4JifJBCarj5VC/Lrdux3E56kqeMjlebz4Z/hKiGObmNQpMKACPHmVw5Wos5uZmZRDZ68ncvAa3bseRmZn5XJkcrzefJBUhilG5sn6BCSXbo0cZVK6s/wojer1VrqxfYELJJsfrzSZJRQghhNZIUhFCCKE15W7215DhznxQU/X79cNhTDlRtvGUmgELCJpozBHXkcwpxd3M8t+Ph63q9+u/9qD/3FLcmRDijVfypGLpwYq1I3AmgqW9ZrC1FIIqysa1YWzUr8zX497F4BXvW1Mfr9jGZGfDPM9lKm5xdJUPM3a+XjNe5nj3YE79T1i/YgBGBZRbdRnH3AkdaWKa/XqyyFRcZcekSSz+41VG+jqpy5AVCxhne41FI6byc0L28+Z0/XIak7q8i1n2wczMQhHzK5+NXM3bd/vVd5m0eiV9rS6zYsTMXMdJvMlKPPw1YJo39XWzSiMWzWX8xeOyjaB4Nw7R0rUHLV174Dl2EUdTLeg2YRpDyjqugsTco+C/aH/mzviAOilH+WZID1q6DmHU1E3sPXyMI29tQoGPVyxgXP38CQUYPI2vP6xFyuFFDHLtQcu+U/hi3SEOHg55CxMKwJ8sHjmfg0onxi2ZRNuyDke8EiXrqfSby7Dm6Zw/nkaHZqUTUP1mNRjTyQqb6urQnqRx5N/X+CFZs+0btqnJmE5mmOu/A/xFVto9jmy/wdrbz+q0bG/LiE7GVNfJrpPCvk232JKcHYMFY9ytsMluQ5nO2b0xLLv8Yq8p/vxhZkQOoJutIeqRJrrOWMykDs++0Rbbk7Hsw783jqJx6iG+9F5MiHp4LPSXLFw+rKfqZSiuEjBrHPNPZ2/TgWlzRtGrsQl6AIpbHCxRb6kWRnpKovetYG8MQBJhx7cRdjxftdYjWTaxKy62hqr9kMX1Q/Pp/3WIqnzGas42vsxnYXWZmx0rVwlwHcd8oPHgmXz9jxbUMVKv/KZIJHTfcv61LBRQ9/xMwwnIdMLLQdVjUkT/yoyhKwiBnKHCIo8F0HbCAqb1dMLaSBVjXNivzB+3mpDsCoXEeXzienKa6enLEGddIv676Plv3raG6Cmusfe7w0QDJERwdFMER/NUMqfvN7MY0aZerr/9n/h3n8RKAPrw7wODYN1mMj/6BFcr1TFJPrWIHpMOA8W9dyaxLbgtKb9exqpLC6z1gMxEgldNYcLWJM2OJ4BlT+Yu+YSO2X/T5947hcc5++fUXK83lDkLj9JkZVcmzThE/7kRiDdbCXoqbiwe2ISs0/6cMqxeOtHUseDLPlZwOYqJfmEM8DvPd9tvc0jDhAJwPfkBZ3dGMGJ2GAPmRxKcUY1uvYyxzq5gacaQLgbc2XmRobPDGPp9BGtOpPBHzj4MGdLLAs5FqtuIYFlgPBduF7w/jdTvwtzGFmTeuMxe9VORMdcI+a+P6hvtkEUcVdai2z8+xbmg7fMnlJyCWnTqcI8VQ3rQsu88DqbWwsvHl14AmDN2zmS8bBPZMWsILV3HMu+8Lh0n+DGrtaaB30KRaUjjD6fR1bKwOn3495wPcdENZ8XYIarejN8m/PeF5K1m25W5bRJZPVYVy2dTf2Rj9rFITSRi53JG9VV9u99wwwCXPoPy9upsXemY+hODXHvgOesoKbYfMGtxl1wVijoWwIAFzP2oLin75uHp2oNBfiFkNfowXxsFx3koV/GQPk6YpYTjv6qAxHxDSaZRA7y+6YBVIUfLeYYfk7paEJ/dmxniw5p1h9mRp5YhLqP7Y3Rquer1jp3DnFWHc0qLf+8Y4tLBmJC5qtew4g8DXEfPYlLuv2GRx7MJs5aMoqNuOIuHqP8mMcZ0m5CvjWLizHF+MXsjs6jTZsCzv0cu0/z3czZ4NdMKOWaifNE4qbT286YNoayaEkRxKwm3bd3iuR9N9O5kQfXk23wXmEncE+DJ35y9nEWMpkECD688YOPlp9wHyHjCD5FKMNSlTp5aFahkWFFVX/mUo+cecjFPuQ6VDNWHJuMpZyOVHFWWIAgA266cDd6v+tk4mbaZR5n/+WLC1MXxW1cwZ1Oo6httzGFmhN0CQ2Mc8rdj2Ydlaz4pIKGoRB2eyY4YIOEYM365jMK0Ab36AJaD6dRYl6jD81l8OAm4xo5pO4nMqkXbjzpo+CK2MWPVOVIsO/Ltjl3s3zCTsT3r5q0yoQsuRomE+Pny8/kkIImwfdvYcTp/W4mE5tS5RsjxCOKzi/atZs6qw4QlAAkRrDx8DYXes16dylUOTdpHNBB/eD4Bfygxa9SVvpocC2BslwYYxYcyY9kx4oHofQW3UVCcz75396StrS7JMYfyJJocm+az4tQ9rLpOZ/fvm9k0/xN61c9doQND2tSCyH18mt2biQll49Z9z46FWmbM4Zw68edDCMn1T6DJeyf5j63MV//dN/qFcF2vHm2HaXg8m/fBxTaLyP/5qo9nBCv9Qol7ro2i48xt4/mrZJrWpWuX58vme/egpetI5he8qShnNBv+avUVU94zIGz5N+wDBhRTPeT0uTyJJOT0OQ12okt9Mx3Sr6cTp1FQBatS05iv+lhRx0z/WfJTpj+rkJDMtnPGjHB3YkOndKLPXeeHI+okpqrMxsC7fNWrMWsaZ3An8iYbApVcLPzat4LdOERL78Wq3+t3YdaM8Xy90QLDIapxeKs+0/humAt1TLOHjADFvXyNGNBkySfUMbxFwKTnEwooUeb+NNqaSMpEJ0wbAboWmKIk+kbub9Q7iUsdhYtVC+CYRi8jfutMem+tS98vP6FvhxYM9XHFa8CzoZK+9S1AcY3Q88U0pEgsvM5zw2cAt/Jtn/d98XP8PSY7G9MY1N/yizgWO8HUSBesOrI7uGO+dsn7JamoOGmAqREoUwo7dkn8PGkoP9fvybTRPenYegBfd+jJx7/MZ/B3oUALrE0h/tRPhe0gR/yNwuto8t7JE2PCNVIU4GDVB9iprl/E8axviBGGWE/cz9mJefd9vQRx5vFLEin/qIWeiWbVRfmlQU/FmW8mOWN43h+/7Zo3nJ1INEsoABWK7QEVS8eQr4baYZ52hzVLzzNgdhgDDqc9V+3o3hgGz4/k1yuPMW/TiKVf1KRnrvQac+4Wn/iFs+acgkoN7JnxRT2GFzr8o4GYw8zZFE6yUQO6fQhYjuS7CR2xTglhzedjVSf0f71VwIYmmHKLOOrRbUKfQodUSt81dnw3k8EevRn0w5/g0JURg1UlL/03owvLfD7ERfcy/n5T8HTtQcul4Sheut0CRP+SM3ki56f7VH7W9n5i9jF/0jh6dB7Likhw7DlIexM0NH7vvKxUgmf1eO54vfCU84QssjDEsOzexOIV0SCpvIeDlS5GzUew4+hugo/uZmJzQzBqwsSjW1jRr/AtNU8oAJn8kfwEA7Mqz85/lFRNA2x07nNh532OpqlWSW5qVsjHXkYWG7dfY+T8K0TrmNOpTb7yJ084FHiLcfMjOaOsRrv2WrwBZod6WOslErpsMRtPXwOgl2lBE6RvccR7HP9aFQ7On/B/M1zylef7Jx2g6p2k/AEcSyQFQwxtzXNV6IO1CShSXnDGARC96TYp6GKkHpv6OSYRjCxo0vxFW3TC2jSL6MMzWblPNSRmZWvw/PRmI4M874uPrYxBcS/XrKoijgUQnaIE01oFjulr7h6KTNA1aqJh/WtsvHEPcobyzhGXAla2/V88BA3fO4amuYY4LetiagQp8TufPVfU8TyWSAommDbP/d55Seq/h/KG9poUrycNksoyvDt64prrZ+l5JSgiWNpxIONK0HspzqETiaRZ1uJLdz2sdQAqYNugMh3zXvJBFcOKVAIqGVakWu6CjKekY0D9NjpUAaztTRjaoErejRtUY0xjXWzVtx6yrqNHdZ1M0rNP1FsaMqZNZeqr91nN0oDq+pCW9hLTqOt3Ye4wJ8wybxH5C5CaRSYWOPTpgBXmOA+YyYjmhY8LxG+dyoxfE7H6YBr/HpD3H92x5wLGNjcHyw7M/bABRimX2bsTSNhEQJgSxy7TmNTFHKhL3/l9aKx7iyP/3ZenDavmxugCukYuec/pdPmEWV/2p2P2h0t9F4bMd8KKRKKzm/jfYUIVFnT0mcnH6noOrfszdoCmH7xKMtGlTvP+OAAOPccxt0O9AurVo9eKT3C2BKsu0/BqZEjyH4fynOAu9FgAP/83hOuGToxdrGoD6tJ28CS+m6Dp+SWAX4m+Ada2XQvsNXYdPYlpg9uq21cdh++cLSD+mnqCxjF+PnULGg9g/ZddVMfasgm9RvfXPNlp+N4xaz6YuT3rAnUZ4tOWOplXCVmXu0YRxzPnvTOLWepzaFbNuzB2/qQX7nF1bVMTo8xbROwsvq4o316rK+ofXknku50wxv1dlrbJPlGeysEN11UnyutY8NNQm2cXPbZpypo2gPIOS79PJDghmW3nqjG0vRMb2gPKu+zceYtKvXLnTl0a9rKjk776uScPuXPqCt/lfHl/B+s2dZnrnj2lOZOkK1dYdvjvkr0Y266cDe6a8zBTcYuDy+awOAFIWM7GngsZ13U6u7uimv667hwd/1H4YFLIXB9WWK1k8uhZTDo2DtXZGiURfxjgtXIjQ1G3M2um+gMsiZ/Hzcd6xXj6ztmI9xxU00KX+TAn+yT6gAUETXR61ivo4MfmYEARzqLuU/kZC5p06YPHh5/meR1HF85nRvZ5h4Sd/GuWOf+e0pXJKzcyWR3X9UPL1VNki7Oalb84MffDT9kc/Klq+uu6X4ka45S3muJPIgx78uMO1Rk9RfSvzJiUe6ZRUccCOL2Yz5bp8n+j++S0QaaSqMMl6U0nsfH0n/T6hwvTesKEffmKLRvQbUBXvMZkP5GF4kYI82bNz5mgETLXh8W6fozrOZnNH6qOVqYinDWrtmkWwmHN3jvX/0ik8ZcrOeuDekqx+r2Xrcjj+ey908tnJR4+6teSEp4zY69k+uDVyATFH9sKfE9M89+Pl+0tAuRk/RuhQk27ZiX8tNQOWU/lJQ1YQNDEukQv7c+/XvVtDV6xj1dsY3L9a+pEV4BSPhatWzlz+kx2WmjCLH8/PHRD+Mxrfs7kibx1ytIktgV3hSJuuVPs8XxJrVs5c+uWag5+XDx8vGKlan9Dnl0s+vocL6FtckNJIUokgjmf/0Swblvmrh4pV4kXo+0MP8Y1useeWVPlNi1viddq+EuIciFhJxNGXKVjY0MyLQH5sCyEDZzexJdbjxV6/Yp488jwlxDF0GSoRoZznsk7/FXwLYHkeL25ZPhLiGIUt1JhcStDvm0ePcoo8kujHK83myQVIYqRlHQX+3p1CkwslSvrY1+vDklJJbhB3RsuKekutWpaFZhY5Hi9+cps+EuI8sTK0gJzczOqVKmc5/mHDx+RlJRMfEJiGUX2epLj9faSpCKEEEJrZPhLCCGE1khSEUIIoTWSVIQQQmiNJBUhhBBao+EV9e6s2DsG5zz3I7/Nrx3H8KLLKwhRGqx6ODPQRclev2iiyjqYl2FTm399UpOkHcHsuFTWwQihOQ2TSiUAbuz3xFtuI/oWqsXq9TXw/zSM38s6lGI84S9IS8+1BHBexl2b0jXxIlvDX2lY+ejRaVwd7q6I4o/Cqjx5yhMe8iDlVcYlxMvTMKnUxdRIScqV0g2mfPBi3ZEh6B05g1EnN+yMALK4E7yGYeMD1Eu0dsZ3w1g6NzGhKqryB7EnWDbej23xMOjH3QzjEoomrbAjgf2rL9BgpDt2eqmc/X4sw/xVc/jbTV6Mj0czbLL3cW43fqN+4KQWX827vZyZ+nEdahtUVEWansaJdYfw+x1o34QNfbMIiKxObePazPylHjMB0q/iOzg7wVRj/qZ2sO4Uyr7tcKupukAw9d+0O9IAACAASURBVHgg/RaXyvqNRcrMeFrg844fNqLO1VhSbQyo1dqVyZ6q52/tDs6VYPRw8m5A53oG6ABP0pL43f8K4Tkf7BWp08MB96bGGOgAyntc3B3N4WuqfVZxcuQTz3cIWfInYekAFXD0bkmvajdY/+9E7lGdD4ZX5/qhR1hVN8XFxxV3AFII9MuXYDKeUPArEeL1VrIbSr7EOlVvFkOcPJpx9qfPGb0iAadvF+DbfQi+3gEM8we4xOWoM8T+GMD6kKs49vJh6TdufDp+D9u+ugiAmaMhu7ymYrd6AT3GN2P/OG9Ojt/IYA8v8P8BvBezYKA917f4MmzR7xj18mHhV/3wXX4Vt/EHcsXSnR8OTKU9Z/DpPo3dJXod1oz9Rx04EYjX8ofcq65Hu/amGEari09EMPQEGIzqyOd5Ekl+BjT7lwuX/vcbXjsekmWjh2V6poYxGLNkXgPqFlByLTCEz4+W6AXxICUL7mdwN9/zUb/8QRSV6eKWP5Fkq4Cjd1Pe04tly7y73H1agZo9nPjoE3vSv7/CVaBG18Z41bvPzlV/cvV+Bao6O/CPgQ3JXBXB8RR4GH6FI01d6NLXlMv/TeFpw/p0qafg9yWJqFaQT+PXtWlgU5v3Ckokud1/TDqPSJJrBEU5o1lSaW+ALoY4T95N8GQAJfHng1g4cS2ni9v2DZUZEciwFaoEEffVCQZ3GoiZY3ZpIpvnLcypG7XXj3ND3ehsag+otiH5JsvizzIoTokbl1gWkkjnoVlgqlpyckL3hlSNO8GURb+rej97/djq0YqpTbrTnwM8W9LpAGO6504yJVURXQPV8CZpmZzcG/dcjfTHGjQTfYFJOx6qfr+TyVWN93+Pz6eHFF9NU+FRLCpqaOtJIc/rmeFc7wlRP93l7lOAv7m9/za3XBxp2vAKVy8Z4tzUgFtBF7l6X1X+IOwmUR2a4+isx/FDmcBT/thxhUaj7enl+g5PXKtzd1+outeSO4anhYbxTCpb/QobxBPi9aVZUjnxLdO+dIYzYcRgR89JY5jQ2xOfhdfwmBJUyiG+npLj9uR6dI/MLHKtq25B/299Ge1aGzOjZyvyFTo+nplF/o9yM0NdsHYjMNQtb4ECCl8fsqTiWLnnJgu8uhHwSzo3T19g5b/jOJtW8pZuxubvG5Qz1XUxQB/rT1xpmq/olg6ALtX0oVZPVyb3zFt+XyfXJMr0VHbtS2N43/pw4zI/hckglni7aDz8FZNzm+pY9i3+kvoNd/ORZRPg7UwqWVmFj0tYT/ZlSndLYvdsZOYWf05Gg+/2IDqXdCdR23Ea+MNLxVmcPzedxnNHBB7DmuDduh0Lfkxh9/wglp4vflvt0O7w18tRcGZ5BMfvF1b+hCtbz7ArurBylSoWeugDVKtMNeChVmMU4vUmi3SVgs4OlujFXWDhbH9UK6B3x9QIKMFMnsspSnrXqY0nlPA8yQt4+JA9y0+zZ/kl5qx3x61XNZaeL/STVcu0PPz1ohIf8YDKmNgABb70R6Sm6VDLphJEFzEeaGGDV7vKXNlxgXS3ZnzQI5W1+x+VUtBCvH40u/ix32hmDHSmPgB29Jz0HT3rZ3Hj0m+lGVu5lZKVBdb29O9mAVZNGfT9EFqalayNzRtOEGvUjInLh9PCCqAe7YZOYenkEvd3CtfImimfmvCujeqhcXMTTHQhNSnfd+ukh2QZWNJdvWtjm0oYaC+KVyiDVCVYNTWlCgAV0KuYXZbK8dBM7LvZ06haBdVTenrUcTWhJgCPCD6WQhUXB96zVZdXrIiVUw3qVctuozJd+tuic/ESuy495PAvt8HFkS42+cJIyyKdajRyVu9crwIVEeLNoFlPRdecNgNn88Eo9WPFPaJ/W8u0+ZGlF1k5FvitP56rR9Bjnj89gAdRu1kV3J5PS3IyJGQhoxfpsmp8P9bvHah6LlPJ5YNn81V8mdlflajdvg0rPbI/0jJIiDyF74/5vonvDWd7+/cZ+Fl/gj4Dki4zc1SEVqc2vxp/E3boKo796zPaxxF4wuUdZ/hVfXFh/P5IAnDAfXRb3HUAnpCecIu9waryh+FRbNGxp493a1rpvAP8RUZyMkduqM4nWfVwoKlOHP/bo1RtcOcmv4aaMPDD2vyx4ibx2WFk3uXISTN692ytOj/zJIG986+V74s1hVCTW98LIYTQGjmnkovv9iB62xVV4ya7XIaqLgAUQgjxHOmpCCGE0Bq5S7EQQgitkaQihBBCaySpCCGE0BpJKkIIIbRGkooQQgitkaQihBBCaySpCCGE0BpJKkIIIbRGkooQQgitKcFtWszpMm4Co92bYGUEoCRs+UDGbS+t0IQQQpQ3GieV1tNmM6NHdWJ2LcVvSxDnE0ozLCGEEOWRhknFi2FuNUk9PpuRi8OKry6EEOKtpOEiXc7Y6iUSuUISihBCiMJp1lOxN8ZIkQaT1vB7awv0gMz4UFZN/IatMgwmhBBCTaOeSh/L6mBkR+Os3Uz6yBPXYRv5w9CF0X7DsSztCIUQQpQbGiWVG8p0UETxP589qhP0VwLwO5OInqUdHUo5QCGEEOWHRknlfEI6GBlgK90SIYQQRdDsRP2K3whT1KXLrOF0sQRLt+HMaWVB5s0wtpZygEIIIcoPzZcTbjWa1dPep7GpLpCFIuY3vvNZxWE5US+EEEJN1qgXQgihNXLvLyGEEFojSUUIIYTWSFIRQgihNZJUhBBCaI0kFSGEEFojSUUIIYTWSFIRQgihNZJUhBBCaI0kFSGEEFojSUUIIYTWaLxG/dus/cfN+LJuEt99G8eJEm1ZEY/B7/LPRkboAjxOZve3MazLKJUwxctyGIx3J2vV73FH8d97uuB61dx4z6MZNauo/n3uRWwjMCT2FQUpxOtNo6QyYOkWJjY3fL5AEcHSXjPkTsWFsbPAq5EOUf89hc+lvzHQrwBlkVCmbyC8nyFBX/dj4t4Xa8Jz+Xb8XFLZ5DqShdqNrkSsu/mwanZ7ODiT3rPParfx6E34R+tRveMwehgVXs3KtQXmaaf4ZdMxMtDjnYqZ2o2jPLGpzb8+qUnSjmB2XMr1vIUNw0fY8vTkWX76/bH6ycp0Gdcck2PBbA0vi2BfjlUPZwa6KNnrF01U/sK2Y9g0zxPriDUMHh9AXFkE+JrQKKlsnTgwX+Iw58u1a/mQ2xwrlbDeEDUqY8AjYi+p7tmZnlFG9+6cNxSneS/XxO7x/dhdRHn/H3czON6T3rNfbj9FcpnCqtlu6B6ZSg9tJ5QcmTx9WlS5OQZGkBEXq/5+kMlfRdZ/wz15yhMe8iCl4GKT1rY4/n7l+Q/hcugJf0FaOqkFFYb8wODphuxaNIJVs29q/wtPOfJiw1/N/kmb+llE/riKN/HO9w7O1kzoVYuald8BRQKB0Vn5alTE4+P6fNzQGMNKwKN7hO2N4Zsw9adLR0d2uZvk1Pac1xZPgJuX6b3q3it6FYD3Yk580YyqANxkl8tQZuYun72BcJebbIqzp38LS/QAFFfYOn0kfiG56njUVv2uuMCCTpPYnKsJ3w1bsLseRLK1IXYtggj3UD0fu8dNywnGgimT3bBLOcHorwr4h63cmHe7udHEQp+KwNMnSpIjDxJ05kpOlUo1PXDtVB/rKjpABnGXggg+Ecnj51srQC3e9famWXYPpro33g0BlFwI+IE/C/lQLalBP+5mtN4JThq2p4edanQgM+4MS0dOY3O8qo777BVM6dQQM3UsmYqbBC2fytSARNXfyyGBs6ataGmmJHyLP5ndRtDSLIvYPc96d9ZePqwa3x47I10AHsQGsWy8H9viSxhwxhMKzalpCUQqzXHtfIOo3ws6ypVw9GhA56ZGGABP0pL43f8K4bmOZUVbC7w87KhV/R0gi7jQy+zar+Shhm3U6NEML52bBBvWpnO9KujwF+m3Y9m1IZFnL1UPJ+8GdK5ngE4hcQBkZhTz7SFkIb4HG7LeYyy+e4YyM7To6m+qFzpR33NgE6xSIti5RdvhvAYMTZnQ34ZK4RcYMj2EIf4Pae5ULU+V9v0aMbxuBgHLQ+g9/RSzT/9N4/7v8oWVusLRKHpPD6F3YCqQyu7pIarHrzKhAPhPor2LN58eKCL1W7env9EFfL3dcPJew1nsGTB5CtbZ5bOH4uQygnURygI3nzl0IINn38PISJVInFxUP1rvsbiMoLOjLpePzOJkAcXm73Wj4dML7F63EP/Vy/hlVxCR13N9Qpr24P2etVAc34D/6oX8b8sF/qrXk06tzDUM4BZ/+i/Ef7U/FxTw4JI//qsX4r9aewklW9Um7rRM2c2nvdxwnx5EnGkrRs/2yikPj7rCyQ1T6e/ihpP3AoIUtekxdAQtsis41iZ5tjfrInRxGugNG7wZ/bsSu7ZeuIOqxze5PbrnVtLfxQ33kVuIMnNjyqIx6r+7MUvmtWVXAT9LOuYL9v5j0nlEUmIBL0T/L6KCk6nS1IaaBRTX9GhCL1sFh5YHs8gvhC1hlXjvE0caGagrGNRgwD9sqRh2nqV+wSxaHk1qvcYM7FFZ8zYAg6b2uCRH82+/YBYtjyHVrB4f5LRRAUfvprynF8eWeao2Aq4a0PUTe+rli/dBShbcz+BuEX+7c7MPEJ5Zm3ZDuxdY7rM9iPDQDfgU0UZ59wJJxYs+zYyJvxDAvkJqtG3d4rmf8sKmYw1qPrrLnp2ZpAFpsYnsydNTMcS9oQG3T15nx12Avzl/4AaRCiMat9Mrm6CLlMi5rPw9rdwSOLloIbujgWh/Vp1LADNLOuepc5Xksj5t4GGPDVc4t6jwKrq6BlQEIJPHKZdJSkrPKTNtXB/juFDCbqgGL/5SHuPCVSVm9VwwKLC1MpR5iV2j1nIuHuIO+hEUnUVV02cfcXH+S5m54axqSCn6AFNDb4KRCY7ZFRQJhIcksux6AiiuEOSfyEmlEvR0MQVaeDfDLusSm77YQxQQF7qWmcEJ6Dm2YjQA9/g8+4tQvp/Pj+YPNpWtflEUeIpEXw+D6BuEZ1jzXquK+QpNcG2qw5Wg61y9D/A3d4OvE5VhSqtWlQCo0cEG6+RbBAZnqnpD9x9w4Ng9qjW1UX/gF98GABlJHDr0kEyA+ykER2VRzUydVPTMcK73hKhDd7n7VNXG7f23uaVvTtOG+UIOj2LRf4v7BuHP2egszBw6qxJ4Pn793HByGYpfMa2UZyUe/rKc9B6N9a7xy+rIQuuEnD6XJ5GEnD73YtGVATsjfVCkEJbruXtPcnd7K2FQGWq6t2VXvneNUqfCqwhRuxQJnM3VTT+nLCoBlZ1BViaguMKdQsqTjv9GTJ/ueA57lwdxf3L2SBBJymeZUN9IH6w74j0y31dthc7rN68+JYFtuR4mZ2ZBrnky1l4+LB3ZCjszQ3K+xigKHOkvkKORIRg1Y2poEFPzlNx84ZAL95jjx5KY0K0WNc/k6s5YVKYqWVzP8xn9iPj70LSmEZCKuVkVSM8kT/8+Ucl9nRrYWcBVim9DtY2C27lqZD558uxBdV0M0Mf6E1ea5ov81gvOjd0Wl8qwOqoE/jYq4WFrzOhWdcn8YyPfFXMyJTuxlKeEorknRP1ylilnyjoOkePRRc75RxJp1ZHGbRvTaeC7JAZv4mhkUk6VrOsHCDh4sQyD1FBmVuGzh6zGsHSyG9bXA1k1O4D1IVdV51E6lXAfyWeY0n0agQUWGrNkXgPqFlByLbCg3koxLt0grENL3muVXOTQUekpboKMgjPLIzh+Xzt7i8vKAiNDbLTTXLlTsqTi7oWz1T3ObwjQqHp5TCixigxwMMCZuznfio11cnfdH5Gm0MGudiU4o9kpXvHyohRK0NXFrMhaT8mID+LcjiAiW43iwyatMYrcgwJ4kKZE19oafS6Wyaxurelkj7VeAucWLWS9uofpaWoIBc9JKtDv8alMbWFCCysILPDEvGr4S3secyY4BecONs9O6ic+4gG6GJgCOR2YylhVg/tRqmHLpOSHYKuHMTzrrVgYUo2H3EoEKL6NYiU+4gGVMbEBtJRUsnvVb+uVSyXq+Q/2bIJpfAT/LfjrzRvhztG73K5cA48+elQHqttZ4O6gm6tGBv4nUzFwqs90pwqq8Xj9iri1q0Ffq4LbLFv1aGeoC+hi1Db/qUcNWTXFTA9AFzMXiwIqXEGhADsXH9qp67dweNF4C3buyE2S9Wrj5F1QqTnmjV2oXll9dqSiOabV9eDhfbI/WhShodyu/C6urRqo3/R6VDJ3wc42/4l6A3QrAhUNqJT/NIDGvFh3JIjwA/MLHFd/KSlZZGGJo1dnrLGghfccRruYFL9dLnE/7uGswh73RVPwdACwoEWv4SydXeDB1YrM8Ftc1jGlVvXsZ1I5HpqJvVsd6lUDqEAN1zo46qcQEqwatrx77Ca3DGvh7qqnOldWrSrdOxhzP/SWeopy8W0UT91GN3saVVMPX+vpUcfVpMDJBcXrTLs6hmRev5RnCPNtonlPpdkXfNhIl+hd/+F8KQZU5pQpLNtmxFd9nNnYGlAkEPBbEubtnlWJPhrF99RjdL9WbPF+B/iLrHvJBF4rm859YXy3B9Hb7tljtxVrCKck0329WHdkLC1zLgRsyLDV/gxDydnvPRnmn/38RRZuOYPjeDdWhboBWVze7s6Al7w2Jo+9AYSPakU7jzFY+//w3PBQResWvO/6vurOBTxBmRzLkf3H+Cu7wqPTHN8Jrbv3pF8zT9W048z73Ai5pf5GmW/KMC3oN6wFLzZluB5mRvAg6mwhw0sv4eAS1nksYWL3mQR2RzUFfPUZ3IbqFrtpjvgAhk23YN1X7vj5u6tOGmcqSQ71L27Ll/CQI8H3aNzN+FkY+yMJ6OGA+3hX+qCeyvvTFf7I/iaQnsrWn67S17s5E92ypxRHsmX/I83b0ED8/kgCcMB9dFvcdQCekJ5wi73BL/AyvT1wMlMSvmFtgcU+24MYYHeTrW/wyfoKNe2aldEVeUKUkPdiTnxhT9T3IxjmX9Ac1teE92JOfFGb8K/7MeYF72AgyiErL9b5j8UxaiUDRr29V9XLvb9eO/l7BwV4nAGV9ItsRfsXH76A3BdOFuIpUNQo04NzK2k/Sn0Oz38SU+usZsH4JSzN+pyJAa9nYmnhYknVuAusl4TyFmmJ7/IROCUHMvEtTiggPRVRDjm27YwdNwkMuVrWoQih4tAS9zoQe/DsG3FLmpchSUUIIYTWvHbXfQkhhCi/JKkIIYTQGkkqQgghtEaSSi5VDeT0khBCvAxJKkIIIbRGkooQQgitkaQihBBCa+SK+jeZqQcfeL2rWk5Y8Sd7/VV37H1eVUw79qeTo6nq3llP4ji2cRN33ua114UQL0TjpFJ/4NfMH+iClRFAFvHnA1k4cS2nSy828bJS9vDr6n2803gwHzUpol61drR01OPKnmVcjM+EinoUvvC4EEIUTrPhL8vRzBjlAhd+YEhHT4bMOwXNPZkyq3Ephyde3lP+yiomQ1SvhgEPSI5X3y78aVmvHSyEKK8066m0qokVSmIuBBIDEPgfIod2oI2JHVD4ssLiZVTE4N3+vNe2Nsbq23E/SrvJ6T3bic++83e11rTu3g7b6jpU5AkPbp3kyP7TaHzXb4fBeHeyznnYYeQU1S9xR/Hfq60+qC2rf6nDzf8qsO9bj9oGAOlcCviNcZtUycuiuyMLPmpEbWP1rSXTUzjz80mm7c0EqjF/UxsIe0iz9yzh9gVWnrdkrIcluveiWTDuIgceAlWMmOjnirtdVdUQ3r0Edv/7OEtf5eqcszcQ7nKTTXH29G9hqVrqV3GFrdNH4qde88p99gqmdGqImfqGoZmKmwQtn8rUgERgCrtC7blzzoT2LUx4ELGd9ZluTGxhQmZsIBP7LeQkgJUHC5aPwM1OvZyw4ib7c9oQomxp1lPZfYoYhSH13YbTGqg/cAJtrJTEnNhTutG9zQzfx/U9E+L3r8R/9UL8N2zgyOlI7mUnFF0XXPu0Qz9qG9tXL8R/wz5uV++Ie7f8K20XIXqTqu0jcUAcx1YvVD3WWkLJZo5bX33OLArA7cMAloRBQ682jKmiKk1MSuPMjkMMGbQNt0E7WRKrT6uPnfDI2b4qDY0v4zX1Aqk1mzG2+R0+H3SMCwb18HAHqMQYPzfcK11nwSfZbRjhOdkV7yoahmhnzeZ5bdn13E8zvrYrfvMc1u3pb3QBX283nLzXcBZ7BkyeQnbqDo+6wskNU+nv4oaT9wKCFLXpMXQELXIasMcuZQHuP11Cr0k/PsUf93EnUNi1YlA3gKb4Lh+Lm94FFnq74dTrc9ZFmdBjsi9TXstF4sTbRsNzKnsYN6cm/n6eLDnqCdwjctv3jNteqrEJdNCvogekQ1YqaTeeLRn7jkMzbJ/GsPfiLdVCVFmXuXihNQ3fa4IVFylwldgylHD6LD+cVy2ZtWd9DN7O9antDJwAzifyQ87Kb4/ZcyCBEZONqJV7+9i7pEdncTMdsiKv8efDamQ9rohhdcCmDu3t/uLC/0Xxe5q6jUWX8drsQuePwX+9BgHGxjFoujZuWJ7AyUUL2R0N4M+qcx60bGFJZ2AzEOe/lJnZVaMPMDXUmx6dTHAEVItvK4mLOEucf2fiPqlN8pEA4kLqoUAXPVPAxYsWdlmEfz+LbdEAF1k2+wzue91oNwoo6+UOxFtPw6TizJcj38M26zaHAq9h274Njd28mXAmjGWvcnjhbaL8jVMXavH++8MZ0DaFa6FBhP0Zm7OSoUF1PajyLr1Gvptvw7jXcJ54BjcjHz97eCcLZe5iBwvmjG9Gq5rqoSsAkgptLetxvifsjDBEn1af9Sfos7xFV1445hekSOBs6LOH55RZeYqtvXxYOrIVdmbqoSsAhebry+NgiBGGtPwiiPAv8ha9rWuii9eLZkll3D/5sH46h74cw9dngMXOfPPzbD4aOZr/nVlFQunG+JZ6iuLMOnaG1sKmbUeate3PRy4xHNz0Czkr26Zd4JetB8koyzA18hTyJ4IcRvhM7kCrrMusmRdE4JnHpLd3ZvfkolYpK8gDgnwO4PfHC4ZoZ83mkbYYPlfwiLDVF/hGG5/YVmNYOtkN6+uBrJodwPqQq6rzMJ1K2lAqJ6b3Y8xBLcQkhJZplFT62JuDIpY/cnolYay6lEjXVjXpAGwttfAET29x58Qm7pxoSutPu9PQAY5HgyLpATiYYAyv3VBXyZhQ2zyLS+siCFC/vwzq6FOCFdchLIUE6mDZHHjRpKK14a8idLLHWi+Bc4sWsl7dm/E0NQRK0FM5kkDKF80wc7GAg3JiXrx+NBop2XnmDplGdnQY2RhLwLLZP/FpZUHmzTBJKKXFqjV2NWtRqSJARd4xt6aqTgbp2VcvRp/kwqPatOjmgn52nWoNsHOwz9eQHpUqV4SKOujqFrVwb1G8WXckiPDgFUx5wRYK95isLF3sW9fAGDBubo2vm03JksrDGwSEZdDQ3ZUxzVVvaQMbI7zG2+Y62f8aSMkiC0scvTpjjQUtvOcw2sWkZG3Eb2TrOSUNuvvi26seANYu3Znw/RQ+LYWQhSgpzYa/tnzHMvvZjO73LTsGAWShuHGMZXMCSjW4t5sJ9p3a0aaK6k/09Ml94oP3EJbTLYnlz537oJsbnsPepyLw9ImSe5EHc8bWbXpNoUPOjGELug2dDMDtIws5Hv3qXknR4li55ya+Xp0I+AVIT+HEf09x6dO6JWrlgO9vGM5sx5BZXvQD4CnKpBjWlELEL+zgEtZ5LGFi95kEdkc13Xj1GdyGliSFJrJ5lC82P36O5zdrCP8GIIsHyRfQZD6CEKVNlhPOparB3zxIr1DWYQghRLkl9/4SL6ga8zd1o5VBEVXSr+I7OIzfX1lMQoiyJj2VXKSnIoQQL+f1u6RBCCFEuSVJJRfppQghxMuRpCKEEEJrJKkIIYTQGkkqQgghtEaSihBCCK2RpCKEEEJrJKkIIYTQGrmiXgghRIFCfvsp5/e273/y3OOCaHxFfetxc5ni2QQrPQAlN377D5/PCZS1VIQQ4i0Q8ttPhSaS3DQb/nL/Gp/+jmSdWMqQjp4M+TEWk/eHM3+c+cvGKYQQ4g2iUVJp3r4mpooofpkTRAwQs2UG685n4dDKG8tSDlAIIUT5oVFSMdV9fr2HGGU6mJjTQeshCSGEKK80SiqHz9xGYWRHz3HvYQnUd/+CKa0sSjk0IYQQ5Y1m51S2L2PVb2lY9f+SHUd3s3FcTeJvKgHIKs3ohBBClCsaTilOYuecMeyc8+yZCWt30yY1iZ2lE5cQQohy6MUufrQcTfP6EH3BX8vhCCGEKM80TiqWlqrpw/XdR7Pih/dxUESwb3FSqQUmhBCi/NH4ivphC9fygS2AkpSYUyz0+V6GvoQQQuShcVKZ+09P5pZmJEIIIco9uaGkEEIIrZGkIoQQQmskqQghhNAaufW9EEKIApXqre+FEEKI4sjwlxBCCK2RpCKEEEJrJKkIIYTQGkkqQgghtEaSihBCCK2RpCKEEEJr8lynUn/g1ywe6oLupTV0n7gnT0VLzy9YMrIDtkYASm789h8+nxNIwisM9lUxqFGVLz6uh7O1PvAXyqREDmy6zn/ulnVkQgjxelP3VOwYvHANq0fVLWQpRw98RnbA5Mp2xn7kyZAfYzF5fzhzBr7KUF+R6sb4ja6P+bUoJn4TQu+ZZ1gXrY/H+PoMMyzr4ErJp++xfWa1so5CCPEGUPdUGuNc+zGnF81A0W8tHfLXGtmBRkaJHJv/H84nAFuWcdhtLR+6DYcta19xyKXrn/3tMY+OYNCvGepn/ibo18vUtG6Jm3sl1m23ZvUvjUjdcwtLtwbUNgDSUwhaF4Tf78/aGbO4P80id3PG4X0GOhqonow6idu0ONXv1Wswxbcl7jVVZcrbV9m4PIyA6Gfbu907wwVzJ9xq6gMZ3Dx+krGLU0lX78OgVV2W/KsZ9sYVgaekxl5gic81Tj5UIsNYFgAAIABJREFUV2jvzO5/wcp1j/Eepo6VBwTNOYDfeeg8rSPe6Ze4YG6CSeNuBP2i2kwZdhBP3/vUGuXGxvcULBl8lmf9ViPmrHenYXQg/eYrtHnohRBvAHVS2cOkj1UfGzP6PV+pee3q6CmS+CNnrCuJGKUS7O3oA2/Ouio6xjSvq+D03Axaf+DIZ+1NMOQv/p+9+4/L8d4fOP6y6i7d900/SD8UkTI/iqKGDDlnZUfZOWGy7TDNHDbHry1sjE1nxubX168ztGMbOme0TdlWzhEmWaUQokRISfRD913qruz7x31Xd+knd2H7PB8Pj4frvj7X53pfV3W/rx+f63qrsq/wYVw+vsNMsAFAiruXnD0r97Lj/DP4LvVh3t+GcjkultCSmu7svF9AEnOcKR/lkykx5FlpmWaOIUGrRuKlSmbF66kcVhkTsHgkby1yRfl2ElGaPsxcnbEMO4Tv7BIk3q5s/9twVl3dz9vfAja2rFvQH0nMIfw33kVl05mlK0ay9INS/BdlVycepN2ZNymTL9eEEXrqPraOhig1ievwJ0c5DMzdKKlOJNoyv75EitdgvF9NIGKX5kPPXgwwLSI+QiQUQRAe1Kwb9b1k0gc++z6nEACJbuN5vGzbY6EoIknehUDP9qR9cYJxe3NBboDJ7Xuo2htgr2mak3SaHecB7hOx5jzpEhtGTardnaTwIks35pNZAhSWcSFLM8OzL54WRcR/kcrhQqCkhNCV50k37Y6vj1YHuVfZvquEYqAgKonoDAl9PG3Vof6lFw7lmYRuvEsBUJx1mxVxuUicejKlVhSVpEQkEHrqPgCZaWUU1NlsVXkD+6Mkk9MZ0Me1G1W/Ab7eNshuXOHL883ao4Ig/M6I0V/1cTShiyKXQ5cAuQRJwT1i6jRRFmqdkpQUkl8Mlja170sob+SSWW//cmSUknNK67OSQvKL9bDrq9VHcRFntJpcKCgGi86MAhxMjEDak4XfTSBa8y/Cx4IHf6SFpB9o3mbXZ8fhTJT2PZluA9CZUfZGpJ+6VP92CYLwu9estxRfUhY/8NlLlibwwDHvb0RBGSojKT2MwNTWGPT1cezcHomikAwMHnd0NXIvMm/G2VqJR+eiLnL6ZR88X5Oz/lx3+hhkse/frblCQRCeZs06Uzl1vZAyuQV9Las+saCXTAY5GXzTerG1vdvlFMvlOKVkEnmzA/7LPJhkcJXIiu58+mcpSZF5VF3BkpkY1yxnbIKZFHKy7tbb7QPSFCgxwnKg1mf19SHtgItWk2dNpZB7m8NAfFYxmMgZrBVG61CwPS4Ps369WOJpC2mX2FHS9FKCIPw+Ne/y17afOa/ownOL/spAS+g1eQ5/6KXiXHx4K4fXxpR3OJVtgoc3hGxNZNziOF75VwFbtyYwbnEyKy/VNLX0GMzcgc8Az+C7oC8OqiwON/cIPuY8kRlGuE9zYpQJYGxMwOK+OBRcJky7D4sevDXDGFPA1NsVL3sVKTHqC0/F/z5LfLENfh90Y7CJurmtexeCpnVu8WbfKlYhc+qJtzHAM9ja1J6f+fUlUgxs8bQvJyVGPKwjCELDmlmkK4K3P+rKzg/Gs/k/41E//LiDD7bltmpwbe9XvorMxGOaM+sqUvm/oyVklIKNrYzRpmV8lVxzRzv9XD4DFvgTXTWk+J+1R341rowtS6KRBA9n6b+cWYp6SPHmT2pGfgGQkcn1fqMJ+65qSPExFn6rmVeSz6JPfuaT2e6s+pe7+jNVKTmnfmnxVod9ncSoRYNZuLsnC6kk59h/mbxWa3RXSSaH01zpY3OV0KgWdy8Iwu+IKNJVD6mtOcvG2+FkYaT+oLyYswfOsiT+V6Ab275zh4i9vPlF68Uwa+0ExhOP1/xrrbeSZhPPpgiC0DyinHA9ijPzCFqX97jDeGK4zHDFXZpL+NcioQiC0DiRVIQGjVr6IktdpUARp0OOsCWryUUEQfidE5e/BEEQBJ0RDz8KgiAIOiOSiiAIgqAzIqkIgiAIOiOSiiAIgqAzIqkIgiAIOiOSiiAIgqAzIqkIgiAIOiMefmwGz0kDeLdHLp9+nP1AXZXG6eH76rP8ta9cXcys/A7hH18ipLSp5X5nzH35k/+zdABQXOBAaAT1P7vfAfMRExjpZK7enxXZ/PzlLrIq2zBWQRAaVetMpdfkZUQcDCdqvW+9jS29ZrLzQDixX81pk+CeevZd8O+rT+rXvzBu8Qkmf5zOv5/WhGI1ilX7IknYF8QwXfedF8EP29bwn9hbjbfrOIzBToakR2wgdNtqQr/cq5VQBhO0M5yEqE94xUrXAQqC0FyapGLPq6u3s21GD1DV18yCP8xfz5fLRmNefwOhPp3bI+UeGSnqlxYUl/7Kg+XOngYurNi4kDGGMcwdv5rjrbKOSu6rmjjlMOmIlCLu3CzTLFKmNTOB1VNXEKkYwNyNrZD4BEFoFs3lr3642pUTt+Z9FON38PwDzSzw6CPl2t6P+Z/DO8w1a+Mo25ijqzVzxtrStf0zoMghMq1uItXDd1IvJvUxRWYA3Csg6cAlPkzSfCmOcGK/T81O8ls5BD+A6xcZt7V51TJf+TycmYYxHJd5MsZeBkBZdjzr31zE7pvqNj7LNxE0sg+d5OrpMsV1ojcuZGHYLVi+k2THHBLM3RncSUnynlDKXpjO4E4qMiKWMm55AgDW/kvYOtsTe7kEgKKMaDbMDmbvzZpYrBe8hY99PtFvB9eTUPSQPjuB4UPsMNUHqOBe4XXiIvZx815VGyvsxvgx2LYjEqBScZ1fftzL9bvNvG7l+CoBI62rJ59/M0j9n+yjhB6I02qYwNKV0Thv8yFoeRTjlrdqTUxBEOqhOVOJYP6kWSwKb6g+yjn+8cZ03tyU1GaBPTYyc+ZMsMEg+TRTFp9gSmgJA51r1573HN+XN3qUErbxBOMW/8LyuF/pN+FZ3qm67HI0lXGLTzAuMh/IJ3zxCfV0MxNKlQ79fRicF860sV74LI4m29ydmcv9q+cnp6ZzfOdCJrh54RywimiFHWOmTmdQVQMnO+4sDyDkrATnyQGwM4CZh5XYD/HHB8AtiK0LPJGc3MwENy983txDaicvgtbMouYr3IU5Ix0wTI1h7on69tdohg434+ZPm9WXpHbu5EjcOQqqE4oUqzEBDJZcIjJkNaHbNnMw04xhL03Aork7Im2Xuu8j2UA2P29brZ6ulVA0Elez/6wK+yEB6kRe1+KdJCdGs39xc1cuCEJLtMroryEegx7497SwGdGZrvduE/F9GYVAYcYtImqdqcjw6SPlxvGrfHsb4FdORV3jnEJOv2GGug2mLIX9M3Zw8iZkHwwmOk1FB/Oe1bOzQ9ezdGcCqQBpUSxMvA5yM5yqGihySD5xiw1Xc0CRTnToLY4rlWAowRwYFDAAe1UKu96JIBXITtzB0tgcDJ3cmVm9Fm96W8PFxC2NBKqPkbFm21X5FF67SPWtI4kHjralpJ+IprgSoJjCmERuGNrh0LP+3h7VFyfTKevkgM8L9cxcORVnNy/GrWyddQvC712rjP46EXeyViI5EXeyNVbTKuzlRqDIQ/ucrKBC+zKNAdL20NVnCPt9ai+r1G+n22DyctirNXmnTAWymmlr/yWsf9Md+04yqtOZIr/Z3TvJZSAfwMLEaBbWmnO95r8BlpijJDW7gU6Uh/jltC2jR7/BxCF5XEmMJulCBver5sulyJBh/VIQfeosekOv2aG2TFgOd163w9C8lfoXBKFBrTakuCqxPE0JpfkqSP0ugaD4Vl5NmYqGvsuxmsX6BV5YX41k6/IwvjhxWX0fZWQL13EnniDvRUQ+dJCVKOJD+D7RFpshIxgwZAIvu13i4K7vqClzdpeEPZ+TrnzolbTMTRUqZMitm24qCIJuterDj09jQslQlIJciqvWZ6b62ofU9yhU6GNhZ9DWodU20gFrwxxOrlmtTiiAn7msiYVqO3wzHzqZMaixIbhpShRImj7qr8wkK2YXP3wRxRVJL/o4aj7Py6UIKeZdWuu0pB6asyvF1bZbpSAIauKJ+jqyjt7mRvvO+L5kiAlgYt8FH0eJVotSQo/nI3XuxWLndkgBjPTwGtaZv7Tl8xF5KlRY4uQ/Cmu6MCjgI2a6tWxYXvbnESQoHPBZE4SfI0AXBo19g/XLA2oaJR4n446E7v396+/EygP7rrYY6AHo8YyFNR30SymufnrxJKdTSuk2ZAI2Ms1FOokV5i4emNTqyBCD9nqgp49E8mgJyGeoHR3KrpMc9kjdCILwEMQT9XUp89iwV857L7nypQegyCHsUC4WWg8+pB1N5TN6MnO8O3sCngHuoyq4Q+SV220X58F1hPiuY673UiK9AUU632yLx2uqpMlFq90MI3BxF0Le8yE41IdggDIldxJDtRpFsfvsFDyHehNkFcbqm3U7McNh5DCeM1b/KlVW3OVmbARJ1e0qUcTs4hB/ZujEOTyvGXZcdOcCxzUjfm3GBvF89aWqLrwwdQEAN46s5lha8zdHzZ8J/c0oOhvKhvpmL95J8ng7MvaJm/WC0BpEOWGhGfwJOfIWTqmbmTgjrOH7PI9dF175fDsLndJZFTC/+nkeQRDajrj8JTRDGIGLw8l2mk7IZ748qfe/hy1fxdz++exfLBKKIDwu4kxFaD7Hwfh0h4yDmmdjnig9GfaCHVw9zPEWXzITBEFXRFIRBEEQdEZc/hIEQRB0RiQVQRAEQWdEUhEEQRB0RiQVLR2k4vaSIAjCoxBJRRAEQdAZkVQEQRAEnRFJRRAEQdAZ8e4voc0Y9+iO/0RLLPTV70vLCI/j22RxH+uJpF3C+YGyzdqssB87gcHWRugBlYqz/BT6E4oGWgu/fbXOVHpNXkbEwXCi1vvWaWbPSx9sIepgOLFHw4k9uofQYF8s2zBQ4RG492T/yn68Y9u6q3GaupaYxH2EBHSpZ64h7i9aY3g+mfXBsawJjmN/nYRiNcaVBUscaypXCk3oybTPdhITG03yviDddp22i9BtG/gptYkiOD1H85zFXX7Zs4bQbavZ9030by6hvPJ5OMmJkcTsW8KERt9Ebs7EJUN544/1VYDtwoTP9pBwZBtLhrRSoE8ITVKx59XV29k2oweo6mnl7sfLA+CXbe/xlxFv8NbuLMyGT+GjyW0aq/Cw4i8zbvE5Pst82A5MWPeeNZ6NNQlYS8hsB1I/e4vA0Fv1NDCkowyKrpWgrqP5K5V1WlRwHwqLaX7typYz/aMLE50ba2HCX962oXMrxqAzU+cxc5QZV/fMw2f86lZYQRmVdX9IdRiZS+FePgVKdcP7lWWtEMfjtXuGHz5vhpNt7cWc5XUPuLWpD5KKbtW3D26x9515rE+1ZOLKtbzSlmUy2pjm8lc/XO3KiVvzPorxO3i+bqv4DQT8pWYyZ9vPXPJzope7D+x5+JqBQsMCZw5heMFFznXuwXBrCaDiRtx5gr4vpVirTb+UeE716I+/Y3v1h1fOM257kfr/9tbsfrObpgJxPuGLUwnRXskIJ/Y7F/LlbVP8XUzV7RQ5hG3J4KtCwN6SzX+oJDxFRle5Je+u7Ma7AIprfPpxNjHVHXmzZeoADM/uYekDCcWMiUt6U32S5DeUBX4AeUQGp3Jeq2VZacPfYMY9bBjnZ4u1rPZtwMzwWL5JBjDEOaA3o3pK0QcqCnM5HJpOsqb8pNOf+9L9cgb5NlJsPapi0Fq+ixUTvSqIPS/HysSSvy7ppm5QeI2vNmWhLmqgR/cxjvi4mCLVB5QFnAlP439XauLu+9pQ+p6J40zP/vj0NVbHknqODXuLGty2h9ZdhiH5ZGw6U+fN0VbYjfFjsG1HJAAVFRRcPcqh6ETKq5p09MDDexjdTPTRo4KizOMc+Smu+nerKXLPWYztU1UUriNj33wWgKKUUH6Ieeijl9qmjSB6YA7bc20IcDVX/34WXGfPJ3Hs0LzfrYu3E6te7oudqaYGT3Ee8f8+zqIDZUA3tv3HhpxTcjw9OqBM+pnt5QOY59EBVUY88+Zf4wKAsZy5wUPxse+g3l8FOYT/8xjrtSq7ZiduITV7PNY0VlqigrIKqO88Re0Wu2d8ideRt5i53J/dM36bBX80SSWC+ZMiAHh/fHMW64JMDvk5SU03FR6aqUt3LA4kM3ljOQZ97Fj/Wn+WZdcuY9x1tDOSuAvM+rqULH09HPW1vpgzsnllcTY23r3Z0lCZYese+Jde5LMPL3IKY5bNd8E/oJCwrQUUZ+Tw1naQjjBj1gOJRMtUXwZ3yidhzY56XoufzzfBsVQlF6qTwIOK8lRwt5QHq9KYMXayDZU/JrImqRy9bna8/poZmf86Q1QWQDucAlwYbpjBnpW3uV3Zjq5jnHn5dQeKP0vnMpD63XlSac8fvLQTkZZbN/kmFHA1w6hWIqnR+Y/98O95l++3XuDy3XZ0cHXktcl9KNt6lmM1tZOxetEFvZ8v8M/v7lGmp4exft1kacjwv7nhTgZf/PMmBfXvjodm5O7HMJNcftq5g0IVPNPenk7mRTUJReLG0JeGYXB6L/vOZHJf0hsXfz98Xigl7OCZZq1DEbOF0BhNcrHN5EBoROtc9urqTEBxPCtejyaBznyydiST/5ZD6PxrFAO3cguJ//a/LI1WkIkBvov/yLxJzvgeSCACQGKDXUE4viHOhAY+z/SkQ/gu7Mz2Vb3x73uN4PMGzAr2wsfgIqteT+WwygDfBX9k3oKh3Ho9ltCSlgRbTrGylOK8xtqEsTXWny+8vVliFUbwb/Bt2g81+ssj2APHsiv8sjNX1/EI2gqy+ep4OcVAYcp1jl3Xx8mtdr1EScENPv6hlKwKoLSStHougWeVNnYzvIC40AJOlQKlJew4UwCm7Rmo1aKpo9cJQ+wwvJNO+MFmbVXDklNZ83U9f5Fd2tOBu1xMUn8tVl67zdVCYzqaa7bLsBOuPStI/e9tblcC/MqNn26QaWSBS586fVU0EUOD82W4ukjJjL3K5bvqdRQlXSdVKcfJtfaxqX5OJt/G3qMMoLKSkgeuhpRx7J+xrGmFhFJNz5D2EoBK7t9LJ/dGzd/qM44D6FZ5iaQzmdwHUF3kzOlbSLr358m7KpNHzMZrJBQChbfZfCoPLMxxr5p96hZbDijILAFKyomIykEpNa45M6aYnPNlFB/IJYdSUmLyKU4rRYkeMlPApjue9vc5/W0qhws1fay5yHWJDaMmtTTWe/xvUxL/y2q81cmwdLJwwPk3evugxaO/LMf/g4+Gm5K293025LRGSEI1hYpzWpOpBfeghzGeFFafMShvKmjid7iJdZRwTisRZSlbPhrL2VwGinxa7UJoYSnF2NDb1YDkpHL0unWmu0kJV6uutJlIkGKE9etDcamzaKbOxjdK6GgEti8OZcGLtefc1a99bHb3lpLWvrNg7eZPkJsl3DlNQp15pfEHSejqy8jJC7h35wpJMT9xPbfm0EBqYgjGz1ZfsqqR/eQ9Y1BcyBmtX/DM4jpnfY5d+Gj2ANy7dtC6MNXQwW4lNadrGvZyZBjh/vcJRP+99qz0Ok0v5ikZ19+XVWPT2XCg7iXHFkg8Q7bCE2vzLkB99x+fbi37k3Ofw7o3nVAe28GiTeIs5behot6xGU+Usjz2f9uRv/oNVn+hV5SQ8eMF/lfr71FB/MazHLvbmoFUkP5NPPsfc72WVz4PZ+EgGWWKFPYvXkT4Ay0ySP/2/7hi7obTEA+ee+ktXFLDiTh6saZJ4Wm+++YgpW0Y98Nq+PdTzpIFz+Ouusj2ldFExpdT7OlK+AJ5C9dQRPSSKILPN95q9/JV9F65EJ8P1zHmndOsGjmf3S1ckzZDeR9+i0ml+Qcm7nMIDR6NWcqXvLUkEnGS0gbkEvppTTqZtoeCkvrvazxGd5QqMJQxqBXXYdbThIozp1gTHMuaT07zbZLWucCtexTRHjObVgyAe+QX6mNmY9CaK2mW3TP8cA5Yxf5sO8at2cS0Btrdz0vkwoEtfHPoOhKnQVTtHkVuEcjMMG2rgFuNGXYWKlKizhIWr75MLO1u1Oit9Ack5ZGDFMuBTTcNWrOUcd1z2L9sOs6PlFB60kkOirzDD93Dk6x5ScXSl00fqBPK23MjREJpK6Z2BHobYAKY9LFjuF0FqYmFLeykHfaydkA7pCbtHi6OgjJUcgtG91JPmsjaIdWavTf1OljbMa7VLsi3p3c3I8ruNnTDI59jiWU4vOBA346abTQ0pPtQM7rWaldKvhKsXMwxBqAdhnp1urpbRqlJZ1w038B6hlX77B6xP+dh7ObI8G6az/T0sHLuTM+Oj7yBLZcWRXBaPhjKsK8zy8TRC3PzDpo/bilyi45ISopr7o2lHef0PTsGveCGkR6AHs907I29o0OdnqRI9AA9KQZ191OzBRByJJrk2E3o+EkaoByVSoKDR2dMAdOB1qzwsmlZUim5RlhSKX18hjJroGaP2cjxn92NuoOH5RIJRalRBB+4/GhhL3DAnhwyIh6tmydV8y5/TR2DqxwYOIUvj06pNUtxajvec3+je+dxu55FlqMzX46sGlJ8lg/jm1yqWuDMIfjZ1UyPXvgco4ErkSeYd7QFcSRnEuFmgv+0IewHyL3Cx+tuUfWMdfbOeJJ9JzPsPW+YHdWCjpurlPOXS3DxGswCr6rPKsg/n8Z/viukBLj50znCcMRn5hB89NXzi3MyORCr3c+vJP33Mk4TejFziRNQwcVv4/khRavJtUz+d94EH839mYqcy3y14xYFQElyKnv0HXgpwAN3zVsBSu/c4ci1B8erNa51R39hYs9Qz0HINH/dqsJsfjkYTs3hSAYXvv8RXvDCL3C0+kn4CiUF5w6SAYAtzwYEMKD6KtIgxgcOApScDtvChUZHN7WlbDZHXGeF/0jCvgOK84j5+hdSpvVoUS9RKw4hWzqMKR/4ox78Woky9xLbWyFicGHFEAfIiGRXYqus4LET5YS1dJD+SlHxQx7N61jgzCH4cZFxW1ttfJBODVq+k62+EqLfnszCE7rsuR1OAYMZrjzH1xElNTfAO3bhtdmWZG49w5En5kuujS3YRvJkMxI+Xkhg2CMePQuNcwxg17bpdE9dh+eMhz+IHrZ8J+tfgMgFU1mq07+TJ4d495egEyeXL2S9+WbmrtxE0OK3Wa2zPxh9LDrqg/ZQaT09rPqa0QEVRU28ReQ3bc12djnOw++97SQHROLcKk/VtwJPV8IX9ETWSBNl0kH8VrTqqItmUw+MkFCUfZrwnQ+fUKwD1rLK14zkz6b/ZhMKiDOVWsSZyqPqwqCRfZArUjicqMNRLebm/GVCT+w7VR0DVVB6J59j310m+Zb49RWeBq30t/EEEklFy5OUVARBEJ5GT9yzTo+TSCiCIAiPRiQVQRAEQWdEUhEEQRB0RiQVLR2k4vaSIAjCoxBJRRAEQdAZkVQEQRAEnRFJRRAEQdAZ8US98Nvg+CoBI63V/88+SuiBuAYaWmE/dgKDrY3U77xSnOWn0J9ap2qhIPwO1UoqvSYvY+1UNyQptV8Saen1BkFTvRjYTaapv6zkZlwYi4LCuNS28QpC/dJ2EZpmiMmIQMY0Vk6j52ies7jL8T2bua6s5Bk9Q3X1Q0EQdEJz+cueV1dvZ9uMHvVXxDGzwSz/GJ/OeYOhI97gg725yDwCeP/tNo1VeCiGLH7PicDHHUabKKOybjn4OozMpXAvnwKluuH9ytau0SgIvy+aM5V+uNqVE7fmfRTjd/B8nUY5+z5k6r6a6f9tOsRLPtMxb+yNcMIjMmLZe71h70WKffoy3FpdJaIgLomp36u/CKW25gQH9KCHqT5wn4Ir6Wz9Vx5xFQAmBM8zISPqHvZyM55bOQQ/APIJX5xKCMAIJ/YPU/Dpx9k1hb/qfjbCif19cnk30YT3xlpiagCU5/LlB5f5FvCcNICZ+teIad8Nnx7tgfsos68SsvUW0U3Vg69mhd0YPwbbdlTXwqiooODqUQ5FJ9ZUf+3ogYf3MLqZ6KNHBUWZxznyU1xNjZAmyD1nMbZP1S9sx+pSukUpofwQk9ncQBs3bQTRA3PYnmtDgKu5+oWJBdfZ80kcOzTVIl2mebDQywZLqbpAiaogh8h/HmN9PEA3tv3HhpxTcjw9OqBM+pnt5QOY59EBVUY88+Zf4wKAsZy5wUPxsdeU0C3IIby6D0F4vDRJJYL5k9SXu94f38QSlv2YOX88fSU3+F+rFSUX1NrT77UepB5IZkp8OeUyPSwqNIfiMhOCp/dAEpfMlB/KKJcZ887fXXjn9fNM3V5EMYUsWVcIvezw0k4kD8PKgWUeVwlZfYJoZTvsO9euAi7r68DAxPPMWlpCoak5wbMdCRx/l+h/N69YrZG7H8NMcvlp5w4KVfBMe3s6mRfVJBSJG0NfGobB6b3sO5PJfUlvXPz98HmhlLCDZ5q1DkXMFkJjNMnFNpMDoRGtcx+lqzMBxfGseD2aBDrzydqRTP5bDqHzr1EMpGdkExNymtDDZRSYGBO0wge/13oRFn+JTACJDXYF4fiGOBMa+DzTkw7hu7Az21f1xr/vNYLPGzAr2Asfg4usej2VwyoDfBf8kXkLhnLr9VhCS1pjowSh+Vow+msOoUfDif3Px7zWp5ifd37KP063XmCCRtp1lsSXUwgUKyvJ0HxP24ywpEfpLcJ+KNPMK+Gz4/lIenRhkvbyFc0+XWiYgYK4f90mWgnwKxm3f619hnDvNhH7SsiqgOLbeUSnqZCZtm/ZOvQMaS8BqOT+vXRyb9SkrWccB9Ct8hJJZzLV9z9UFzlz+haS7v1ptWKTDy2PmI3XSCgECm+z+VQeWJjjrplbfDiTLYfL1IW5CktYfSoPTOXU1FwsJud8GcUHcsmhlJSYfIrTSlGih8wUsOmOp/19Tn+byuFCoKSciDUXuS6xYdSkB4IRhDbXgtFfGwgYsQEs+/Hi5CnMmfEpoXbLCfjkXOtFJ3Ajs/6CIfZyI5DSnkTMAAAgAElEQVSbMmelDXNqzcnXfRCKIpIaq1tSoCBae7KiiRsbdZTGHyShqy8jJy/g3p0rJMX8xPXcmrQlNTEE42erL1nVyH7yxsQXF3Imq2Yys7j2vpC692BVYF8cLLRqqRc3dM5USc3pmoa9HBlGuP99AtF/rz0r/RHCFgRdafmQ4pxz/Lj2XXr1CeflPqMBkVQem4IrvL/61uP/CVTcb/a9jfplkP7t/3HF3A2nIR4899JbuKSGE3H0Yk2TwtN8981BmndB7fGqb6wLAMbWrFrghmVGPOtWZhJ19b76PoxXQws0pIjoJVEEn3+0OAWhNTzkgZ4FMknTrYTWc+rmPZDJcH3UJ430JZhqTXpZGT9ihw/vfl4iFw5s4ZtD15E4DcJG87kitwhkZrXifCq5WmInySN+4zV1QgEGWxi1rI+kPHKQYjmwFeITBB1oVlJ59YN/8P5kV3oBYM+L89/l+W4qrqUcatXghIYVH79GUmknvF83ZaDme8nGVsbfR9RJCrfLKaYDriPUo42ksnaYVM27rkDZvjNeIwyQAib2nfHv08IvOR0wcfTC3LyD5pdRityiI5KS4pqzn7TjnL5nx6AX3DDSA9DjmY69sXd0qNOTFIkeoCfFQO9howkg5Eg0ybGbCHrYLhpSUI4SE/qMNUYK2I5y4q2BHVrWR8k1wpJK6eMzlFkDNXvMRo7/7G746jpeQXgIzTrOVUkseH7qcv40Q/OBooC0QztYJO6nPD4VpXy45TzLXuvF8mW91Z+V3+NWclrtdsrb/DvOnEAfd/b7AOU5hH2QwVcAGdmExHUg0GcQe3wARS6RUVmYjGjbTcHEnqGeg5BpfhtVhdn8cjCcwuoGGVz4/kd4wQu/wNHqJ+ErlBScO0gGALY8GxDAgOqHHgcxPnAQoOR02BYu5LXlxjTi/Fm+PNaZt3z+RIQP6uHGX1zE6zWDFnUTteIQsqXDmPKBP+rBmpUocy+xvRVCFoSWEuWEtYhywoIgCI9GvPtLEJri6Ur4gp409qyvMukgfivutllIgvCkEmcqWsSZiiAIwqN54ob5C4IgCE8vkVS0iLMUQRCERyOSiiAIgqAzIqkIgiAIOiOSipYOUjFmQRAE4VGIpCIIgiDojEgqgiAIgs6IpCIIgiDojEgqgiAIgs7USiq9Ji8j4mA4Uesbed+ppS+bDoQTe+AfTGzt6ARBEISniubdX/a8uvo9Aj0kKJso3D1xUQC9JKpGKhEJgiAIv1eaM5V+uNqVE7fmXX5prBrt+H8QOLCYU/G5jTQSBEEQfq80SSWC+ZNmsSi8sWThxdrJ/VHFhfKLzKSRdoIgCMLvVbNv1HsEB/AciWwNikZUEhYEQRDq07yk4v4eQcOlJO35kB9bOSBBEATh6dWMpOLKh/NdkZ0KJXhf6wckCIIgPL2aUflxOI5WEuRW0/n26HStz/sz9+gent84mbdFshEEQRBoVlLZQMCIDbU+mbh+D3MdMlg/9n2+aaXABEEQhKePeKJeEARB0BlRo16LqFEvCILwaMSZiiAIgqAzIqkIgiAIOiOSiiAIgqAzIqloEfdTBEEQHo1IKoIgCILOiKQiCIIg6IxIKoIgCILOiKQiCIIg6IxIKoIgCILOiKQiCIIg6IxIKoIgCILO1HpLca/Jy1g71Q1Jyna850ZozfFh04FZuMq1W9/ghxGz+EebhNm2pJ078M6knrhaGwH3UebeImrXVb66/bgjEwRBeLJpkoo9r65+j0APCUpFfc0MALj2kx8Bn7RZbI+HiSnBM3sgSbzA3O0lZFS0w8vbiZmze2Gw+hIhyscd4ONgy7YvOhM6LYnDDbQYtuhFpuT+yJtftGlggiA8YTRJpR+uduXErXkfxfgdPP9Asx6Yy5XkpbdxdI/BXyc4YJF2lld+KNV88ivRP1ykq/VgvHwMCNnnR8iRKRgeiUc+0gt7OYCKrNjtBM4OIxuAUazY+Raj+pvRAfX8oowYNswOZu9NeOXzcAJJQdHfHXty+GnbaXq/6YO9YT4Jn71FYOgtAIYtWMsS3wHYVK3jZDjBM7ZwvLkbYyxnbvBQfOw7INHEkZ+axNJFmVzQNJG692Dd3wbgYKoHVJKfcZp1S65wvATw7M/Ov6gIO2eCnakdS7/ryVKA4suseFWdYGat+CMOGafJt5fi4DGBaF91v+kRe2sSTN04CnII/+cx1sdr5nu6Ev432BxSTkBgb+ykAEVEfxRF8KkW/PAEQXjsNPdUIpg/aRaLwnMbb61q/YAeK31TBvZQEHegFI8/ObF75RD2r/Rg7+zOJJ3JR2prgg0AMpx9B3Bn3zx83AIIisqh09AprAio6iiFi6nxfPH2dJzdvJiwLAaFvRfTZrtUr6qTk4xo/4VE51kyZvYALi4IYFeqjMG+/uoGAWtZNdmBvIgV+Gj6UPUfz4qN3s3eHJe/DcXPIp/Nb+/F6897mbLwGGExedUJBRtb1i3oj+TUIfz/vBfft4+RbuLG0g+skQLEnGXq/FSiDYyQFF9mxZ/V/Xi9WnPGsmXpf5n/RSUyqTqReGna1JyxGDAr2Asfg6usen0vXq98z7oMOX4LhhJgrBWstDvzJhkRtSZME+sRNouEIghPnebdqPeUIkGG64JwYo+GE3t0D2Hr38CjlYNrc7btsVAUkSTvQqBne9K+OMG4vbkgN8Dk9j1U7Q2w1zQtOxtJ4KYzZHOLyPdiSC2T0cmpqqNb7F65mi9OXAYg9UAwJzNAbu5Qs64719lwM4GEbCVkp7DhxC2yFCqQyACY492HDtnxBK05TLamj2/OKunU35sJLdooA7qYqP+XmZZP6IGSms39Sy8cyjMJ3XiXAqA46zYr4nKROPVkilYPxeVNraOy4Vk23fG0v8/pb1M5XAiUlBOx5iLXJTaMmlS7j5SIBEJP3dfEWkZBs7dREIQnRTPKCQMxH7PoXVeIT+IS9rw4fxZzxvmxZPUVfIOiWznEx8DRhC6KXL66BIyQICkoJIb2zNRqcidbeyBDAWUqqBnH0IUJH69g5lA7Oskl1Z8W5TWwvjKV5rJZjU4yCVh7EZnoVXuGAiQ0z5l/JhC9bjiTgyfgl3ud6H8nsf1wOcWa+Q4mRiDtycLverKw1pJNnLG2hL0cGUa4/30C0X+vPav21dRC0g/obrWCIDwezUsqwKX4JM3/Mvhx7bv06hPOy5b9gd9gUikoQ2UkpYcRmNoag74+jp3bI1EUkqFpolLdanBx6wUrCPK2JCPiS5buCeV4GqzYF82olsaRug/nyVsediugJJ/gGfvZ7NmNhS/3xe/vL+Hl9TMBS29VJxZyLzJvxlnOPPxamqGI6CVRBJ9v1ZUIgvAEEM+paLtdTrFcjlNKJpE3O+C/zINJBleJrOjOp3+WkhSZR1YzuhnlaIlh9mlWL1cnFPDGXN7UUrVdzFOCuR1+D7EZdRXEXGPR7B/xDctC0q939aWt+KxiMJEz2LjRxR9NUh45SLEc2IrrEAThidG8pDJ+Ju9PdqUXAPa8OP9TXuyl4lrKodaMre0p73Aq2wQPbwjZmsi4xXG88q8Ctm5NYNziZFZeal43eSoVWDsw4YUuYOXCK59NYXCnloWye2cMGfIBzN34BoOsAHoybGoQ6xfUPd8JIORINMmxmwiqM8d3mhP+7oaYAhgb4NlViqS4hEzN/OJ/nyW+2Aa/D7oxWHPfxda9C0HTOtfuKLcEldQSb82qTW0M1Dfyq5WQXwx2A3vwrGZdtiZVs64RllRKH5+hzBqo/nWT2sjxn90N35btEkEQngLNu/wlseC5ycv50wzNtKKAtEM7WPTJudaL7LH4la8iM/GY5sy6ilT+72gJGaVgYytjtGkZXyU3eccagMiPQ/HbNp0xK0MZAxSlhrM11pNpzb0ZAnBiNTPXSNg6ezxfHJis/qxMycWDCc3vw8KOKYudeUszqSrIJTIkgeq7QSX5LPrkZz6Z7c6qf7lrGpWSc+qX2v0cSGaf52gmV90Xyb3I0hlntYY2l7P53xfpE+jG5u/cgEpSwr7l7V3quVErDiFbOowpH/gzHoBKlLmX2N6C3SEIwtOhXVf7Ab8+7iCeNFJbc5aNt8PJwkj9QXkxZw+cZUm82FWCIAiNEUlFEARB0Blxo14QBEHQGZFUBEEQBJ0RSUUQBEHQGZFUBEEQBJ0RSUUQBEHQGZFUBEEQBJ0RSUUQBEHQGZFUBEEQBJ0RSUUQBEHQmWa/+v73zHPSAN7tkcunH2cT06Il9fB99Vn+2leuroFSfofwjy8RUtrUcr8z5r78yf9ZdellxQUOhEagqLdhB8xHTGCkk7l6f1Zk8/OXu8hqpEaYIAhtq1ZS6TV5GWunuiFJ2Y733Ig6TS34w9tzmOnTHys5gJKkjZN5e1+bxfr0se+Cf199Ur/+hSUpvyI1agdPa0KxGsWqjQvxIpq541drvUxSB/Ii+GHbjzzT71Ve7t9Iu47DGOxkSHrEBs7cLAM9w0aLTj6trP0/ImTBABQRK5i4sgUvEBWEJ4Amqdjz6ur3CPSQoKz/EBGPRct5f4wJl/avJ3hPNKdy2i7Ip1bn9ki5R0aK+vVqxaVP62vWXFixcSFjDGOY6avjhFKtkvuqJjKESUekFHHnZplmkbJWieRxyw77gEDJWr55ZykhV6cTGNpwQThBeNJokko/XO3KiVvzPorxO3j+gWb+BHp1Jf/Yct5cm/TA3N8aR1dr5oy1pWv7Z0CRQ2Saqk4LPXwn9WJSH1NkBsC9ApIOXOLDJM2X4ggn9vuYVbf2WzlEXWzr+kXGbW1e5fVXPg9npmEMx2WejLFX160vy45n/ZuL2H1T3cZn+SaCRvahk6YAWJniOtEbF7Iw7BYs30myYw4J5u4M7qQkeU8oZS9MZ3AnFRkRSxm3XH0EbO2/hK2zPbHXlD0uyohmw+xg9t6sicV6wVv42OcT/XZwPQlFD+mzExg+xA5TfYAK7hVeJy5iHzfvVbWxwm6MH4NtOyIBKhXX+eXHvVy/28zTDMdXCRhpXT35/JuayjHZRwk9ENe8PpoUxP7EAWTsycHJfwA2hgBKLu6rOVvoP/Ujgqe6V+8rFDkkRKwjcE0C4E/IkQA4q8R5qB1kR7M10YGZvnYY3jnNqqnzNT+3wQR9Pg+/QZbqy31lOSSEVfVRIzt0PltHhrNwxkJeCZ3Pbh1tpSC0Ns2N+gjmT5rFovAGapOPd6Wb4S3ObfrtJxRk5syZYINB8mmmLD7BlNASBjp3rNXEc3xf3uhRStjGE4xb/AvL436l34RnecdK0+BoKuMWn2BcZD6QT/jiE+rpZiaUKh36+zA4L5xpY73wWRxNtrk7M5f7V89PTk3n+M6FTHDzwjlgFdEKO8ZMnc6gqgZOdtxZHkDIWQnOkwNgZwAzDyuxH+KPD4BbEFsXeCI5uZkJbl74vLmH1E5eBK2ZRc1XuAtzRjpgmBrD3BP17a/RDB1uxs2fNhO6bTWhO3dyJO4cBdUJRYrVmAAGSy4RGbKa0G2bOZhpxrCXJmDR3B2Rtkvd95FsIJuft61WT+ssoVSxxMtfxsmPp+PsNp31J6H3+LdYofm5nr2TQ/K+dUwb64Xz2HmEXJUx2H8K06qXN8NJHsO4t2O4Y+3FXLd05o7dx0X5AMZpSuK88vlSXnXKJ3xxAM5u01lyRIXz5IVsGftgNLu3xZMlH8C4xV3qidWbLVHRJEd9opPqoIKgK80b/eVgilxRCPO3c/hoOLFHwzn872VMtKy/+RCPQQ/8e1rYjOhM13u3ifi+jEKgMOMWEbXOVGT49JFy4/hVvr0N8Cunoq5xTiGn3zBD3QZTlsL+GTs4eROyDwYTnaaig3nP6tnZoetZujOBVIC0KBYmXge5GU5VDRQ5JJ+4xYarOaBIJzr0FseVSjCUYA4MChiAvSqFXe9EkApkJ+5gaWwOhk7uzKxeize9reFi4pZGAtXHyFiz7ap8Cq9drLl1JPHA0baU9BPRFFcCFFMYk8gNQzscetbf2+OUFbuZpQcuA5f5YttpsjDDeqRm5oEtLN0UxcmbwM0zbIhKp8hQhr3W8nlXd5B94gzZCsg6u53jN2+hUIGhHOANxvSXkRW7gtUHbwGXCX8vgmSFGc6+9dTBTIwgNRt69/d/cB5RzPL2wtl7EeG63QWC8EiaNfrrJUsTkFvQT/Ul81+O4JTMn03rpzAz+A1+fmMHdW+vnIg7WSuRnIg7qcuYW5W93AgUeWifkxVUaF+mMUDaHrr6DGG/T+1llfrtdBtMXg57tSbvlKlAVjNt7b+E9W+6Y99JRnU6U+Q3u3snuQzkA1iYGM3CWnOu1/w3wBJzlKRmN9CJ8hC/nLZl9Og3mDgkjyuJ0SRdyOB+1Xy5FBkyrF8Kok+dRW/oNTvUNqIkO/FMzWSikloXPofMYssCHwbba+1v7X1Vh0pV916IGXJDsPEOJdm79pwi6isLeoaEbCVe1mZYAw39CAThSdKspHJNWQyKDP6zJIJTAIQRHO/Dt+72PA98U88yVYnlaUoozVdB6ncJBMW38mrKVA1/kVjNYv0CL6yvRrJ1eRhfnLisvo8ysqEFGnAnniDvRUQ+dJCVKOJD+D7RFpshIxgwZAIvu13i4K7vyKtuc5eEPZ+TrnzolTwBvNmyfDyDVfHsWhbK3gNnyA5YS8w7Zk0vWsfFPV5MXNOCBSQynBFJRXg6NOvy16mcYpBL6dbA5a6GPI0JJUNRCnIprlqfmeprH1Lfo1Chj4WdQVuHVttIB6wNczi5ZrU6oQB+5rImFqrt8M186GTGIKtGGqUpUSDB0LyJziozyYrZxQ9fRHFF0os+jprP83IpQop5lyfutKSFXLDppCI1ahEbDpwhG7DuLlPfbG+2y9xRQKfu3k031ehtLgNF/iMkfUFoW827p7LpEEmKHvzhgzf4gyVYer3BR+5dKLueVO9ZytMs6+htbrTvjO9LhpgAJvZd8HHUvjRRSujxfKTOvVjs3A4pgJEeXsM685fGvpx1LU+FCkuc/EdhTRcGBXzETLeWHTVnfx5BgsIBnzVB+DkCdGHQ2DdYvzygplHicTLuSOhe73V9wMoD+662GOgB6PGMhTUd9Esprh6afpLTKaV0GzIBG5nmopHECnMXD0xqdWSIQXs90NNHInn4BPTK5+EkJ+5jywsP3UUDlJQhofugAJwAp7FzWT3SoYV9hPHFkevI3aaz5W0X9WAIx8FMW/4RQfXGOwsne8i6GvWowQtCm2nmE/URvP1RV7Yt8uGj//gBKhSXfuIfH4W1anCPhTKPDXvlvPeSK196AIocwg7lYjGspkna0VQ+oyczx7uzJ+AZ4D6qgjtEXrnddnEeXEeI7zrmei8l0htQpPPNtni8ptZ3bb4BN8MIXNyFkPd8CA71IRigTMmdxFCtRlHsPjsFz6HeBFmFsfpm3U7McBg5jOeM1b9KlRV3uRkbQVJ1u0oUMbs4xJ8ZOnEOz2uGHRfducBxze0Lm7FBPF893KwLL0xdAMCNI6s5ltb8zYGqI/vTHD/YsuWatoUN+wawavx09iZOh7IcYraFc3H2gBb1cnz5QlZLVjFn8joiX1d/VqZIJzL2wbaDlrvTm+vsDz3z4Ey82RK1EE/iWSJu1gtPkHZd7Qc8rU/kCW3Gn5Ajb+GUupmJM8Ke4Gv76jjtz67Ca/ZTfnQ/JIj9a7zgYM0zRYLwNBAvlBSaIYzAxeFkO00n5DNfrWdYnjBuLljLc0jY+ZQnFCt/Qlb6YH52OzNFQhGeMuJMRWg+x8H4dIeMg5pnY4RWYe02DGe5kuQjZ57gs0JBqJ9IKoIgCILOiMtfgiAIgs6IpCIIgiDojEgqgiAIgs6IpKKlg1TcXhIEQXgUIqkIgiAIOiOSiiAIgqAzIqkIgiAIOtPMd38JwqMz7tEd/4mWWOir35eWER7Ht8niPpYg/JbUOlPpNXkZEQfDiVpfuwrdxPV7iNVUfKz178A/mNim4QoPxb0n+1f24x3b1l2N09S1xCTuIySgvvK3hri/aI3h+WTWB8eyJjiO/XUSitUYVxYscaypXCk0oSfTPttJTGw0yfuCHncwD1ixL5rkxHB++nwWwxpp1+jPfcgsdh2JJHqj/5P7eiChFk1SsefV1dvZNqMHtUvdqX0zdzJDR/hp/XuD7y4BOTf4uU3DFR5K/GXGLT7HZ5kP24EJ696zxrOxJgFrCZntQOpnbxEYWrfiIYAhHWVQdK0EdR3NX6ms06KC+1BYTPNrV7ac6R9dmOjcWAsT/vK2DZ1bMQadmTqPmaPMuLpnHj7jVz/uaB6wdLwXE5adhkHjCVrecLtGf+4ntvDq4mgUbtPZunxwa4Uq6JDm8lc/XO3KiVvzPorxO3i+qaUG/JXneqk49/nWB0oJC7oROHMIwwsucq5zD4ZbSwAVN+LOE/R9KcVabfqlxHOqR3/8HdurP7xynnHbi9T/t7dm95vdNBWI8wlfnEqI9kpGOLHfuZAvb5vi72KqbqfIIWxLBl8VAvaWbP5DJeEpMrrKLXl3ZTfeBVBc49OPs4mp7sibLVMHYHh2D0sfSChmTFzSm+qTJL+hLPADyCMyOJXzWi3LSuummRrGPWwY52eLtUx96axCqSBp73mOZVW1MMQ5oDejekrRByoKczkcmk6ypvyk05/70v1yBvk2Umw9qmKAzPBYvkkGulgx0auC2PNyrEws+euSbuoGhdf4alMW6qIGenQf44iPiylSfUBZwJnwNP53pSbuvq8Npe+ZOM707I9PX2N1LKnn2LC3qMFte2jdZRiST8Ym7XeE+RNyZAqGR+KRj/TCXg6gIit2O4Gzq94wPYoVO99iVH8zTZExFUUZMWyYHczem+qaNIGkoOjvjj05/LTtNL3f9MHeMJ8ErYOGYQvWssR3ADZV6zgZTvCMLRzXCjH1wBmy3/GkUyOb0djPHYATq1lxsA9f+L7FioipLE1s6Y4S2pImqUQwf1IEAO+Pb3qhFyf3xyrvLCF7WjEyAVOX7lgcSGbyxnIM+tix/rX+LMuuXca462hnJHEXmPV1KVn6ejjqa/2BZmTzyuJsbLx7s6WhMsPWPfAvvchnH17kFMYsm++Cf0AhYVsLKM7I4a3tIB1hxqwHEomWqb4M7pRPwpod9bwAMZ9vgmOpSi5UfYnXoyhPBXdLebAqTQf+ONGGyuhE1seXU6mnR+duUvTvVM1vh1OAC8MNM9iz8ja3K9vRdYwzL7/uQPFn6VwGUr87Tyrt+YOXViLRdusm34QCrmYY1UokNTr/sR/+Pe/y/dYLXL7bjg6ujrw2uQ9lW89yrKZ2MlYvuqD38wX++d09yvT0MNav+6VpyPC/ueFOBl/88yYF9e+ORyDD2XcACf+ax8xNOTh/vIoV3lNYERBGYChAChdT48n4XF2G2mnsEtZ/6MW02RHsfU9du6WTk4z9/gux37aKMbMH8NPbARyf/SWv+vpD6BYIWMuqyQ5c3bOCwDWHkY9dwur3xrNi4+UWlx1o+Ode4+TyKJJfmM6wqd6Q+JS/hfo37iFGf/nz0gBTbp4O40fdxyNoK8jmq+PlFAOFKdc5dl0fJ7fa9RIlBTf4+IdSsiqA0krS6qkDn1Xa2M3wAuJCCzhVCpSWsONMAZi2Z6BWi+KGFtWYMMQOwzvphD9qYazkVNZ8ndfATH0MO2p+XSsruX2liJtlmlmGnXDtWUHqf29zuxLgV278dINMIwtc+tTppqKJGBqcL8PVRUpm7FUu31WvoyjpOqlKOU6uhrUjzcnk29h7lGliLSmr21cZx/4Zy5pWSSiaNZyNJHDTGbK5ReR7MaSWyehUfdPiFrtX1pShTj0QzMkMkJtrVbK8c50NNxNIyFZCdgobTtwiS6ECifq8d453HzpkxxO05jDZmj6+OaukU39vJtQTj0RS3302jUZ/7lVCSUhT0clxFD7N3AfC49Hi0V+W84fTz/AK32071xrxCNoUKrT3cmrBPehhjCeF1WcMypsKsupbttnrKOGcViLKUrZ8NJZzq9dRL+K/4TlM/osbc91KyIy7QuTPRRRVnQCYSJBihPXrQ3Gps2SmzsY3SuhoBLYvDmXBi7Xn3NWvfWx295aSB/KIjlm7+RPkZgl3TlNfxZU72RFaUwWUqUBePd2FCR+vYOZQOzrJayqFFjX0vV6meuAMtJNMAtZeRCZ61Z6hgNq1R9PJvgODhy5kzpDNbNAksoexNzufwO4SzB+6B6EttPBPrh8z3XtQdv5LPhU3U34jKuobm/HEKUm5wo6UTLoOtWWUex+mu93l8L8ukFT9RaggfuNZjt1tzSgqSP8mnv0tLHGsa698Hs7CQTLKFCnsX1x/KWGVqr7BEmrWC1YQ5G1JRsSXLN0TyvE09UitUS0NJHUfzpO3NNHoDEtXbsd8eQCBm7YTmBGJ80MOKshWqUAuw+ahlhbaSssuf/n442pVwKnw32Bt+ieRXEI/rUkn0/ZQUFL/fY3H6I5SBYYyBrX6msq5EXuFr9cnEq80xdVdMzjh1j2KaI9Zq37b3CO/UB8zG4PWXEmz7J7hh3PAKvZn2zFuzSamtXD5UY6WGGafZvVydUIBb8zlTS1V28U8JZjb4df02lj/8XQ8Oc2qNwMeOqEAvGJlBgolGQ/dg9AWWpRUXvXrj/nNs3zdetc5BG2mdgR6G2ACmPSxY7hdBamJhS3spB32snZAO6Qm7R4ujoIyVHILRvdST5rI2iHVmr039TpY2zHO6uG6b1LHDrg6G2OsuXWh11GOmREU55VqGuRzLLEMhxcc6NtRs42GhnQfakbXWh2Vkq8EKxdzjAFoh6FenXXdLaPUpDMumgSlZ1i1z+4R+3Mexm6ODO+m+UxPDyvnzvTsqNOtbZ60KILT8sFQhn0LF81TqcDagQkvdAErF175bAqDGxueVY/dO2PIkA9g7sY3GGQF0JNhU4NYv6Du+Y4ZckPISPyA3YkNnz01bRTDussou5rC3kfoRXzZci0AACAASURBVGh9zb/8NeAd/txXQtr+rzjVigEJWq5nkeXozJcjq4YUn+XD+CaXqhY4cwh+djXToxc+x2jgSuQJ5h1tQRzJmUT8f3t3H9fzvT9+/GH4ZPpkqZZPuYzUjstIGeUq56vsqHZWnMV2mIv2LfxysRUmi1zVMfRzdcZYztD5rbIps3K2cCSUiwhTomGSKOZT6IPt98fnU7rSik8un/fbze229/v1er/ez3fs8+x18Xm/7I3xGtuHbQD551i47AoHdcW5kakcdx+J0yxXqOPKn9p5hdZ9uzDIQ/fP9d4d8k+eIjb1wfzP5e9PEIsNbn59cGsEcI/ivItsTynfzu8c+c9ZbId3xG+2LXCP01tT+e5UuSrnL/LDSWPcdPMz9/LO8q8vrnAduHU8ky2NrHnbpzeOurcC3Ll2jd3na1q3VJ36Xv1Vs4SFUXisncDQRVEMBW5mxrEmxZmxij+89IH94fh9pmDNZG82bB+pPVdSxOmd1c3w6IGPO93Mijge+UX9tC/0RrYTLqeZ4e/cLH7E3+b1bJxfHzw4jeeaJ/2R82h6hUSyxl1B0qSRBO1/2tG8JKav5fhIE9IWBjEu9tEnwOuT5ZDZrF/kgibeBc8avgBZIwsv1kdNxDZzFSM+jK1m2bp4lsgLJYVeHAoJYnmKApdFKwns87SjeUl8to5NhzTYzlr3zL6mJWGRM0Y5SWz6/FFbcSB0xQS6XUsgSBLKc0F6KuVIT+VxtaDXwE4YqU+x67HGz4XQsXHArR3k7Ewj82nHImpFkko5z1JSEUKI55EMf5UjCUUIIR6PJBUhhBB6I0lFCCGE3khSKaeZoUwvCSHE45CkIoQQQm8kqQghhNAbSSpCCCH0Rm+7TYhnkKk7f/H6k3bLWPVPbI+KR11txWaYDhjOQFtT7V4Y93L578ZNXPqDXV6FEKKyCkml48hPWTrGHsWpdbhOiady2eKR9ljo9qO+fDSB8ClflL1UUDyDCuL5bu0OXunyHn/rWkO915xwsDUgOz6CY5dLoKEBSEIRQjwC3fCXFe+Fr2Pth+2pdscmlR+ffGgP6asZPcCD0YsOQA8PAud0qaayeLbc5zfNH2QI49cw5CbXSvfnvV/f+xYKIV5Uup5KF3q2ucvBzz5B7f0F/SvXcmyFBUWcSU/gDEDCvzgxpj9vmlgBsq1w/WiI4Z+G069PG5rrXuV++8YFDsbHcPm2rsprvent6kRb40Y05B43L+5j9/cH/3BP+TI27+Ez0LLssL+v7qWEuXuI2q6vPmhb1n7TjgtfqbF+pwNtDAGKORX7I5M2aZNXC1dbwv7WmTbNdZubFBeQ+u99zNheArzG4k1vwpFb2PVTwS/prDqqYqK7CsX1LMImHSPxFtDUiCnz++Jm1Uw7hHc9j7h/7mV5HbYKeGwhkRy3v8CmXGuG91JhAKDO5uuZvszXvbnZLWQlgQM7YabbFKtEfYGkFUEExV4BAtl22JpLh0xw7mXCzYwYNpS4MKWXCSU5CUzxDmcfgIU7YSsm4GKl1N3jAt+XtSHE06XrqcQz7V1/ZsTlV18r7gBn1Eo6uoynN9BxZABvWhRxJjm++vri8SkH07efCZe/X0XU2nCiIiPZffAE10sTisKevm870SQzmpi14URF7uAX4wG4Dam8S3sNsjZp296dC+Ty37Xh2mO9JZRS5ri804TUz2Jx+Wssy45AJ6838dfulMWV/Bukbv0Po0dF4zLqW5blNMHx3W64l13fjE7NT+MVlE5hKzsm9rjE1FH/Jd2wA+5uAI3xn++CW+OfCfugtA0jPKb3xadpLUO0smTzoj5sq/LHjk/rsguWpTPDjdIJ9XGhm8860rBmxPRASlP38cxs9kUGMdzehW4+YSSp2zB0zIRyu2ZaY1UQhtuXpzDo6s1YonCblIzaypFRQwC6E7piIi4G6YT7uNBt2FTWZ5owdHoogfW1SZoQdVDLifp4Js1rRdR8D5bt8QCucyJ6CZNi6jU2QSOaNDUAikFTyI3zhWUlr9jY0fb+GbYfu8hvAJrTHEvvTad+XbHgGJefVsgPkXcwjdVHfwMgfsMZfHp2pE1PIBk4eoXVZTu/3SU+MY8J041oXf76nKsUZ2m4UAyaE+f46dZraO42RGkMtGyHs9VvpP/fTHbd0LXx2Wm8Ntsz6F2I2lCLAHNyGTVTHy9Wz2PfZ+HEZQFEseaQOw69VAwCNgO5UcsJLq2alUjQYR+GDjTBFjgEQBG5GWnkRg0i94M2XNsdS+7+DqhRYGAK2HvRy0rD8SVziM4COEZESCpu211w+hB41D1LhNCTWiaVnnzs24+2ml/4T8I52jq/SRcXHwJSjxDxJIcXXiZFP3IgvTWDB49nRJ8Czh1O4shPOdoEAhgaG0DTPzHM90+VLsx9BteJ3+HCibsPDi9pKCpfbNOCeZPtcGylG7oC4CG9ZkBzt9IJKyOUNMHx/wwn6f9ULMp+5JgfkTqPtMMPDg8VVZyktPSazXJfR6zMdENXAOpCas1GiRFKHD5K4vhHFYtk73bxLKhdUpn0d/7asZj/fOzPp6nA0p7M/XcIf/P14/+lriGvfmN8Sd1Hnbqebw+3pmWfAdj1Gc7f7M+wc9M3FJRWuZHON1/v5E5NzTwT7kPlRFDGiNnT++OoOc26RUkkpN6l2LkncdON6niPmyTNTmT+yUcM0cqSzb5tUVYpuM2RtenM1ccntoU/y6e7YPlzAmtCYtmw/6x2HmZgXRsqJHmmN/479RCTEHpWq6TytrU5qHM4WdYrOcKaU1f4H8dW9Ae+rrfwBPcvcil5E5eSu9N7rCudbGBvFqjzb4KNCc3hmRvqqhsT2phrOLU+g1jdvy/Ddk2oy3bpHCkgj3aoegCPmlT0NvxVg4HWWBrkceizcDboejMepkqgDj2V3XkUfGSHmX0L2CkT8+LZU6uRkm9TL1FiZEV/3y6oAJXd35nt2IKSC0ckodQXi95YtWpN44YADXnF3JJmje5QXPrtxax9pN9uQ68h9jQprfPaG1jZWFdqyIDGrzaEho1QKBo+YjA+rN+dxPGUleh/09q7aDQKrHu/TnOgeQ9LQl1a1i2p3DpP7JE7dHLri38P7T9pw5ZGeE1uW26y/xlQoEGDCluvQVjSgl4+8/CzN6lbG5c38vWhIt5wDSV0WAcALO1dCVgSyNh6CFmIuqrd8NeWfxBhHYKf90K2jgLQoD7/XyLmxdZrcC83E6wHOvFmU+1f0f17v3I5JZ4jZd2SHH76dgcMccFj3GAaAvfvFXH9xM6ysfWWwwLpX7ZiuAVDxkwH4Jfd4ezNenJPUrNcVsVfINRrILHfAMUFJH91gFNj29eplcTQH1EGOzF6jhfeANynKP8M6+oh4ke2cxnr3ZcxxTWYBFe0y43XpuIypi4p9AqbPwyl5edT8Zi7juNzATTcvJZObdYjCFHfZDvhcmQ7YSGEeDzy7i/xiF5j8aYhOBrWUKX4LKHvHWHXE4tJCPG0SU+lHOmpCCHE43n2vtIghBDiuSVJpRzppQghxOORpCKEEEJvJKkIIYTQG0kq5TQzlDULQgjxOCSpCCGE0BtJKkIIIfRGkooQQgi9kaQihBBCbyoklY4jPyV+ZxyJy6u+27X3pAXE7owjZU8cKXu2EDXHDdUTC1MIIcTzQJdUrHgvfB1rP2wPmmpquX3K7OG2aJKXM3qAB6M/z8Fk8HgWTzJ/osEKIYR4tumSShd6trnLwc8+5kA1+wX1cG6FqTqTb+YlcQY4s+UT1h/VYOPoI70VIYQQZXRJJZ5p7/ozI676fcFNFVX3ezhTVAwm5vSvz+iEEEI8V2o1Uf9D6i+ojax4a1I/VEBHt48IdGxRz6EJIYR43tRu9VdMBGt+vIHF8I/ZuieOjZNacflCEVD9FIwQQoiXUy036crn23n+fDvvwZmAL+J4szCfb+snLiGEEM+hR/ueisqPHh0hKz1Kz+EIIYR4ntU6qahU2uXDHd38WLl6MDbqDHYsrX5iXwghxMup1nvUjwv/gr+0BSii4MwBwmcvkaEvIYQQFcge9eXIHvVCCPF45N1fQggh9EaSihBCCL2RpCKEEEJvJKmUI/MpQgjxeCSpCCGE0BtJKkIIIfRGkko5zQxldbUQQjwOSSpCCCH0RpKKEEIIvZGkIoQQQm8kqQghhNAb7QslVf0ImPF33urRAiOAkuucSIjAd+mRsooqj49Y5tuftkYARZz/8V9MnZdA3tOIWgghxDPpFQCVsxv9Vfn8sCiAvgMCmJ+soYunH3PtSqu5M9u3PybZMUz8mwejP8/BZPB45o18eoELIYR49rwCkBfzCV7vfsI/EnKAHHbMO8F5WmDjpqvl25/ORlc4sPhfHM2DM1si+OGMgi4u459e5EIIIZ451c+puBijpIiCbO1hjzbGGKjzOVk21pXPmaIiUFnx9hMJUwghxPOgmqRijp93V0wLMtkRoz3TUWlYpda3eTcAUNRndEIIIZ4rVZJK7xkhjOhczIG1c9nxNCISQgjx3KqQVFTeC5g31Jgz0RFMS3hw/kxRcZUL31YZ13twQgghni9lSUXlvYCNk20p/H4JviuPVKh09MINSozM6awqPWNOR6US8nL4+gkGK4QQ4tmmTSqOASzztaXwxwimLj5Stdba/3JS3YI3Z/ydHiroODKAP3fUcCI17gmHK4QQ4lnWoJWV3e8jlm9hSg9ltRXOf++Bz2LA0Y/IOUOxeYG//NjM8HfZqEsIIR5Dg1ZWdvK+dx1JKkII8Xjk3V9CCCH0RpKKEEIIvZGkIoQQQm8kqZQj8ylCCPF4JKkIIYTQG0kqQggh9EaSihBCCL2RpCKEEEJvJKkIIYTQG0kqQggh9EaSSr0IZNvhONb71PNtQiI5fjhJ+ycmsJ5vJoQQf0ybVFT9CFi+jsQ9caTsiSNl50bWTutZpbLKxY/I7XGk/CvgScf55PgsJbn0g7r0T0oc2xa6Y/m0Y6ssZAzd7CewPqOo+nIbH5bHxJFW7lnSdm9hudeTDfNZYztmKcmHY1jv06JSiQOBkXGkJS5mlMVTCU2I594rACpnN/qr8vlhUQB9BwQwP1lDF08/5tqVVjPnz9OWs/HTwZiieXrRPjEX2GbvQjd7F7oNm8rs3YVYuk4kfMzTjqs6Z7lWUt357oR9NgEXg3SW+/rQzd6F4ZOWsWl3EkmxTzrGZ4jPUtZPtiZzyUTGRV2pVJhG+JhQEtR2TFkRiNNTCVCI51sjgLyYT/CKeXByx7wTvD94MDZuQDqAOb07GXI+eiE/WH/EFJN6isbCnbAVE3CxUmIAgIabmQkEj1zOrnq65R+6fIy4WacY59oGo3baU13HzGP+GEesjBTaE+o80uKXMe6ztIc04kBoTCieRqcIGzONzQOXkvyRCYdiNPTytqYZgDqbr2f6Mn9/6TUtcJsZTKB7J8wMAIrISVyH36x4cmsVuDVmRnApZRWbD2s/PDP3x5O5v1I1C3fCPhuNk62JNg403MyIwXnMF9rykEiOdzmF32FrwkpjJZuv7X2ZD9DFh+UhPjiV/Z0VcelQAvM/XM0+0Pb8anzWQLYdduZa/CkshzjS0gAoySN5xVT8y33oW3rNZs1k57Kf+c2cJCImzyf6MrWLEwBXVo+xwyBjC8FVEkqpNIIXJdFtrRuBIYl4hhyr1U9bCKFV/ZyKizFKiijILj1xggXjJ1TZEVLf3GaNZqjZBTb5+tDN3oex0zeSkPJT7ROKlSWbF/VhW5U/dnxq9ahRdcBjYScsSy5wPF57JuNaHsdjljF2mLYns/5nJQ5eoxlb7fW6hGKmSyilH4K0wWVgIRE+LnQbFsr319owImQxHrpSy0nBhHq3ITc2FDd7F4YvTEcxcCJrQhxqGXc219TQsm8QY20eVqc7oSsmMtQyj4RPJ+h6MxtZEx9fsZqVG2F981jj60M3+wn4TV/FhtKyE4XknogjtPTv7MsLGPXywK9Cr67mZwUlDgNN2BeibX95hhLnyaEElg5B2QeyZrozikOrGG7vgpvvFjLNXAj8zL/ikGRNcQKMccfBrJC0LV/UnJgPh7MtQ4NVH59yMQohaqNR1VPm+Hl3xbQggzUxVUvrnUKBkSnAFQ7tjuLQ7jpcm5PLqJm1+z2+Zm3wPJyEZ+mhOpttC4MJPqw73r6a4LK6x4hIzGZ4VxOq5i0HZm8J1iYUn/IJRev0zhlEZwHsIijWHaePOuHpBXGxLfAb2AmDzDgCP9ul/QCMncOmIXEE9fHCjTQS/vAZjhG0MA6rRR5MiUpibE46u2I3sibq2IMP1CE+OFnB8S8nMX+79lTm/igyq7SVx6GQOWw+DHCFfRX+ThIJD3lwdGjlLjK9O2HWrrbPqi2/lhHF/J1XgCtsCEnGc7sbTh8CIdDLxw4rzSnCPorXxnb4C4JTXEhwdcSP8n8XNcUJw/u0weDaKeJ2/uEPjw2HsvH7wBq3IdSqvhBCq0pPpfeMEEZ0LubA2rnseMLBJCyMIrmgDSMWRZGWuJYwn+5PaXK83JyK/QRm7wa3ueseTOz28Wd1+Qnwj+x0wy0VWXoFM8JWQ/KSqgkFilCXz39ReRSgxKwrgDOWZnBTfbHCb9SbLxeCmar2Y/37lzNioA+BXyaRiTWeHy1jW3y5Sei+KszII2flH7SjziPt8MMKHQhcEUlySuligIk4GNXlWXW3KCjXH718lmtqMLXQriiwNVKCkR1B5RYcJLiq6hgndDNVgrqwFgkZiM3jGgoMTGtTWQhRqkJPReW9gHlDjTkTvYRptfo/T88ux+LvHoutVyCBPs4M/WgZTq5bGDHmD4YrSllZstm3LVU3Rr7NkbXpzM15lKDOEhcShVufYBxc3SHqIqtDvHHQpLLp0yiitx8jVzdvUJESM6NsctTWOIwJxGl7uHaO4Ym7QsLK+SSsBMshs1m/yIX3Jndn8yz9zBV4rAjiPXsNyVvC2BCbyKHLXqzfPREzvbRezrVUAl1n1C4h6MNlDRqUGD1zS/6EeLaV9VRU3gvYONmWwu+X1PvcyR/JjA1nnLcHbjHZNOvqjF9tL8zJZdTM/XhW+fOoCaU63WlppiEzcQYR27VDSZbtlNX0VIo4HumL58wEci3dCPvcq1Kvq9IHlo8KU4q4lgGQTO41aGbUusI1oyxMQF3I8UeMPHfnT+SqwcjUWnsiJY9rqLB6jFVtDhYmlGQl4b8ykUOXAYvWGFXpqdT0rFpGpoMeHFh0wMwICi5rx8Z2XS4EMxN6PeYy32tFGjBQ0qs2lXUxqn9+vHsK8bLRJhXHAJb52lL4YwRTFz+9hDI2ZB4BXg7YAlh0Z5ClCZQUobd88Eg64LFwNA5mGnIy4oEiSlDQrpcPtoDtsCmED7R++OX7w/FbkQ69JlSZZH/DfSkB9i3AYhBhXp1odu0U22IBrrAmNp2bti6ETx+EJWDrNY/3uirI2R1FdPlGLLprV4cZKHGqMCHvxeyF4xnep0NZPY+Zg7A10vDzft1Exs5Y9uVAtzErmT1MW8/S3pWAMa61/umoNWDQzk67GMDGldmLnHmjmnoPf1YtM/vRhA3rAHRgbIgzViXZ7PtcW5b7eTxpamvcPgvEwwagBb2GjWd5SN2+XRqdeQEs2+BZi+Tk1rcNzUoucPxlXn4txCNoBDBiZG/aGihg8MdsHfxxhQrnv/fAZ/ETisa0E8NnOTNulvawRH2BpBWhFVfwPBGVJupLishJXMWUz64Aq4mIsSPMewLRhydol7+ujeP0ZLuHtpYbNY0g20iWuwex+pA3/gAUcTxDyfC1UYwD3TLbGcSVv8ZyKbO9gkkYGYx2SfEq/EJKly1rh5kezF84syYqCSgibYkH46IUWPX1xtN1ZNlEdok6j+NbwgiOLL0mjeDJq1CsmIDn3HWMmAug4eahjUSU1alZ+Io4eukWA0xBw6WUjXydOYGK6bPmZwXIycij26x1HJ+LbklxMOGl81CXYxk3swXrZ7kxP8pNu0S4pIhrh6NqF6RObmQqx91H4jTLFSYn1lDTi+FdTbiZEUVEne4ghGjQysru96cdxEvHZynJH1mTucSDcXX7XHz+/OGzBrLtsBvEu+AZUl25fvUKiWSNu4KkSSMJqvydHQBaMOrzdQTZZle7Yk8IUTN595d4qRwKCWJ5igKXRSsJ7FO13CkkjCldC9k2UxKKEI+imu+pCPEiu8LmyRPJHNgJI00LoPw36ztAykambNnFvqynFZ8QzzcZ/hJCCKE3MvwlhBBCbySpCCGE0BtJKkIIIfRGkooQQgi9kaQihBBCbySpCCGE0BtJKkIIIfRGkooQQgi90SYVVT8Clq8jcU8cKXviSNm5kbXTeparZsXbc1aTuFNXvmcLUfPdqWabpGdGD+9ubJtnxTv1epcOjP08juOJSx9sfPXCcSAwMo60xMUv8DMKIfTlFQCVsxv9Vfn8sCiAvgMCmJ+soYunH3NLX7zr6MHf7ODA2lm8M2A8EzdfwqTfaOaNfIqR/4GjMcfxnJPD1kdtwKkjke82qbHKqM+XMcU2u9Le8y+aNMLHhJKgtmPKisDa7zophHgpPeQ1LQFE7RkMD33tvTsrt0+gY/ZqXKfoay++5ixb1JobCVcwH9COVq++ArevszfqNEvOPKg1zq8PXU6lcrR9V7xsXtWePHcSz3U3tf89wJZtbrpdGNXn+cfCXJLL3cX5XTv8Gp0n+dW2uLV/FfiNotyfWb/mCkn3wNnbFq/bFzlh/ic8bBRl1xUdO8qof9950NCwxSTNtSP3y9G8t7L8+6O0nKYvZba7HS11r6YvUReSFumNfy1fKT8o+C2mKk6SZNgZDytDbQy/nGZVUAaJt7R1uo/tTZBLS1SGDQHQXM8j4Z97WZ4KjB1Agk0hqeZv4Ny8mNT1aWjeGYhzcw3Z8Qn4bigBwNCxPcv+1w7r5g2B+xTmpLNs9jn23aoUkH0g29a6QfxUPEP0s2ukEOLFU/2ciosxSoooyH7YZS1QGkFhnr439DKkp5OSg2sO4jnzAKuzFPR7vwPvVHrtZavB3eidfxr/4P14zk3l46ibDwr3ZGqvPXmHh1F2tqbH9Sz8g/czcmk2+a+3Z5y3tleSHJPJ1O9uoVAqKDp2tGz3yAoJBRjrbYfZtXQ2VZNQwJ+AkXaQEsZwexe6+QQRHpPEvoxqqtZA2cUex/w0Ro+Kxn32YfLM32Di9NfKyrNzckle/x1ef43G5YPvSCp+HY/3O9JaV66wfZ3CxdGsOtEQx3EOKL6KZmLSLax729AdoGVrlk3viuLoj3j9NRr3SXvJNrYneI4lhpWDORzOtgwNVn188KjbYwghXiLVJBVz/Ly7YlqQyY6Y6i/qPb83NiXnOBCZr/eArpy6wL+uAvxOYsxFzjU2p1/vinUU139h4Xd3uHQPuHOfrKLKrfxO8b0a3pN5+yrxMbe4dA+KrxaQlKVB2fzVClU092qK0h2ndgquZSXWuGe6gZGup5OVRvTK1Ww+XFOb1dBcJHbxVS7eguKT50jM0qBsblxWXLzrIqt3lXAd4MYtwo8WQHMjyvahLL7BsSyIzbkJxXns2gU/FWvAsDEmQOt3OmJ99yJRK37lOlB86SqhB/NR2HZgdDXhbDiUTYmZNW5D6vgcQoiXRpVX3/eeEcKIzsUcWDSXHdVcoPJewLx+zcmK/oSIPP0HVHz97oODe7e5oQab1k2ABz2FostqLj3OTa6rSSp/eO9+HRv4E2ZGoC7Y9ZDy0t0hpxJ9eAI5KUmsX7GcuLq+Tj2/oELSKtTcpXwXwtCxPWHjOmNt3oSygbpi9UOb01Q6tjZuAoYdCPqmA0EVb1x9A7F5XPugDQamtX0AIcTLpkJSUXkvYN5QY85EL2Fadb+C6/ayL9r7BTNW6r+X8sTc+43ier7FvkW+OEcOImC6D559PZgf6YjTwpEEba9DI3fvPzzOppaETbdHlZPKskUXSfz5Nxg7gCSXOgaaf5qpH2ZQq1mSyxo0KDGyrOM9hBAvjbLhL5X3AjZOtqXw+yX4rqxmrsQxgKj5gzE5tZGJsxOoh04KAIbNGz84aPQqxkaQf/Hh8yNPRyHqElAou9dc7fIuIj7yxaVvGMlqFU7uXvoLoaeKNooCUlec1yYUwMG85tVqlaVeKgZjIxya1vICHxWmFKH+uY6xCiFeGtqkouuBFP4YwdTF1SQUlTsr52gTyqQp8fWWUABa9GyPn0UDoAGu3q1pfzefvQfr2EijBjRv1ABQ0Fz5aHHkqzUo25vj0gigAS0rtBPP6Z+hZTtXqv2lfYg/y0N8GGTfAgDbYd11w2WVVz74sH53EsdTVhJY1wCv36UIYzoNa4oh0HqQLRN7NKtTE8X/ziC1uCUec9rioJuqae3YgsCxr1db361vG5qVXOB4bF2DFUK8LBoBjBjZm7YGChj8MVsHf1yhwvnvPfBhKD2NgB6j2bin4hSu+ug6XKfE6y2gc6du0GWCI9tKlxR/dZatNU6al9eET2f10MYKgAXjP7FgPLc5sjaduTm1jyN++1n6+dsSENqSAH7jysF0fL8t0ZVeYUPKKTw/cGT2MPCvMqSlxHKgBxHuE3THRVzLiCN4lh6X4p7MYOPe15no9hfi3YDrF9iy4TQu7zf+w0vL3CpkxuL/sniyI2FfOmrPae6Qd/RANZW9GN7VhJsZUUToI34hxAvpGdpOuDnLFr0BCfuZuudpx1Ib3QmNCcPTIBk/9/nse9rh1KsWjPp8HUG22YT5vMhf9BRCPC5599cjO0bw5HUkK5wJi/R/ob9p7hQSxpSuhWybKQlFCFGzKkuKRR1cjsV/TDaDuiopsQBeyA/cDpCykSlbdrGvrkuihRAvnWdo+EsIIcTzToa/hBBC6I0kFSGEEHojSUUIIYTeSFIRQgihN5JUhBBC6I0kFSGEEHojSUUIIYTeSFIRQgihN9pv1Kv6ETDj77zVowVGACXXOZEQge9S7RuLVS7j0I92SAAADrxJREFUCRzjQo+2SgwAKOLywVhmBMZy5iENiyegRUvGT2jLzbgUvsaW6R6vcmxdOj9Ut8Px0/S8xCmEeGyvAKic3eivyueHRQH0HRDA/GQNXTz9mGunq2XSEpPCvfwjYDx9B4xnTnQ+yt4+fDLpKUYu4M497nOPkrLtZkoovFG5kgEDJ9nSuZ5Daf4/3RnR7SGFtYpTCPEiaASQF/MJXuX2o98x7wTvDx6MjRuQDnkxcxlTrvyHlT/yttsETB9xr5KHsnAnbMUEXKxKe0QabmYmEDxyOQ/buLeitqz9ph0XvlJj/U4H2hgCFHMq9kcmbdK9tv7115k9pyfOrZrptuC9w4UjqYSFXuEnXmPxpjfhyC3s+qngl3RWHVUx0V2F4noWYZOOkXgLwACvYCdG9zRFCVBcQOq/9zFje0m1UdWbX+9SjIbiX4Ffi/gVJSVlIRjzl/HG/Pyf21gYm2I/uy9uABSQMD+Tk6XVTE15Z3gHrMwaAb/x69kzxEYVaPe9BzBU8ufhNnRu1UT7j+XeLfIPZvHVrlsA2P61M+3O5lDY0pDWvfsy3UN72cW4FL4+Xps4hRAvkupfKOlijJIizlfeUwpA1QW/ad50VvzCD9VtOfwY3GaNZqjZBdb7hhJxGHoNdMGtS2EtE0opc1zeuUvMZ7GMOQruwW5M9XoT/617WH0LuHqHn46ms2vxFfZdgtauDqz6X0cmuMYzLRGgGZ2aH8ErKI91YXZM5DBTR2Ux4Usn3N2OkbgVBs0YzESrq6ybnUTUyVdw+LAfoeMGMvtSIvOP1iJEK0s2+7alak6u+74vFf3Og61nbvDdFzegZRv6VU4kpQyMeeeDDhikHGN5Sgn3DZry5wl2jBx+glXRNwHo8FYnOt/P4ctFV7l5vwFNWxhi0eh2WROZ35wkk1f5s0ulRFLrOIUQL5Jqkoo5ft5dMS3IYE1M+fMBRO0ZTFsA9S/8J/IfLEivh4gUCoxMAa5waHcUh3bXvYm8g2msPqrdYjd+wxl8enakTU8gGUBN7AZ1Wd2LiVmcer8dJi3LXZ9zleIsDReKQXPiHD/deg3N3YYojQFex72HIReSdhB1EuA30j7PIL3fYOxcjeDog7YfKieXUTNz6/5gVRTy9fxC3X9f4ov51VS5d/+hH+AG3S2wupfHlpQS7gOU3OKHlAK6v6XClptk6uo1Mmik6zn+zq0rRZytrrEas0Qt4hRCvBCqJJXeM0IY0bmYA4vmsqNCSQQ+AyJA1YW3Ro4m4MN/ENUmBJ/FJ/QWTMLCKDzWTmDEoig8p2eTFLmKiKhj1O3j9w4XTtx9cHhJQ1GFcgO8ZryJTw9TTBQNy85W1ykD0NytfKYpSgW0cRtOklvFkqLGz9diumamBqBszsjZrSqVFJT9wzi7I4vTH7zB32e25dfz59kVl8fZX+XF1kKI6lVIKirvBcwbasyZ6CVMe9jQVt4Jdiz9mI6d4vhbp8GA/pIKl2Pxd4/F1iuQQB9nhn60DCfXLYwY80UdEst9qJIIHnCYNpCJPe6S9NV/2Jik5uKt11i8aQgmdQr0Pqe+2sqkrXW66IF6G/56BNfOsu6fV7j5sPLiG3y38gB7275Ov/9py9uTW5O78yhRqTX8kIUQL62ypKLyXsDGybYUfr8Q35VH/uAyc5SK+gsqMzaccbHhWM5cS4K3M358QbCe2nZo1QxN1m7mb9cNUzVthrIO27rDDQqLG2JtYwTUYqirOnob/no8Vy/dhu5GWFBDUtG5ef4q331xlZRB3RnraM7rqZe4+kSiFEI8T7TjNY4BLPO1pfDHCKYurppQ3puzgE9G9qQjAFa8Ne1j+rfVcP7Uj3oNZmzIPAK8HLAFsOjOIEsTKCmiyi/uY5aSfDiJtEj/Ot/juuY+Cqt2uBsDxk3xmdmJTnVKkL+yMSkfZY83mefaGEMAYwNcx3bEp77X7T6KGxqKeY3OPXVDfQYNKBv0O36BY0VmDBpuQrPSYlMlDt2a6io0poOjCRaGDbSHDRtjadYQiu5USkJ3KCwCi+6maK9sgEFDhBAvoUYAI0b2pq2BAgZ/zNbBH1eocP57D75RmNN/TAh/+VB3Un2drB+/YIYe51MAMO3E8FnOjJulPSxRXyBpRSgb9HiLqA1pOM1wYOqX7ZjKHS4cPMCWzH441qGNnzbsIbRxP6aOfZv4/wW4j+Z6HnEHn8GvgpZcZfc+Mzzf6s30t4B7eWxffE43CX+bH748AcNt+GDmGxWWDKfpLm/StjXDhujK+I3ivDy2RxVQcUXw7xz5z1lsh3fEb7YtcI/TW1P57tSTekghxLNCthMWQgihN8/XciUhhBDPNEkqQggh9EaSihBCCL2RpCKEEEJvJKkIIYTQG0kqQggh9EaSihBCCL2RpCKEEEJvJKkIIYTQG0kqQggh9EaSihBCCL3RJhVVPwKWryNxTxwpe+JI2bmRtdN6Vn+Fyp2V2+NI2b6AEU8w0Lrq4d2NbfOseKde79KBsZ/HcTxxKaMs6vVGT5EDgZFxpCUufoGfUQihL68AqJzd6K/K54dFAfQdEMD8ZA1dPP2Ya1f1ghEzfOio0DzpOOvsaMxxPOfk8Kj7aOHUkch3m9RYZdTny5him03YmGlsvvyoN3rWpRE+JpQEtR1TVgTi9LTDEUI80x7ylmLtfvR874HP4nKnvReQONmco3vv0t/uOsuHfcLXegulOcsWteZGwhXMB7Sj1auvwO3r7I06zZJyb5Qf59eHLqdSOdq+K142r2pPnjuJ5zrdDh8DbNnmptvHUX2efyzM1W5Nr+P8rh1+jc6T/Gpb3Nq/CvxGUe7PrF9zhaR74Oxti9fti5ww/xMeNg82Wik6dpRR/77zoKFhi0maa0ful6N5b+WVKk/jNH0ps93taGmkPS5RF5IW6Y1/ZO1+GoOC32Kq4iRJhp3xsDLUxvDLaVYFZZB4S1un+9jeBLm0RGWo3bxEcz2PhH/uZXkqMHYACTaFpJq/gXPzYlLXp6F5ZyDOzTVkxyfgu0H78npDx/Ys+187rJs3BO5TmJPOstnn2HerUkD2gWxb6wbxU/EMOVa7hxBCvHSqn1NxMUZJEQUVNm53YenIrmgORnFAaVxP4RjS00nJwTUH8Zx5gNVZCvq934F3GlWs1WpwN3rnn8Y/eD+ec1P5OKrcllF7MrXXnrzDwyg7W9Pjehb+wfsZuTSb/NfbM85b2ytJjslk6ne3UCgVFB07iufM/XjO3F8xoQBjve0wu5bOpmoSCvgTMNIOUsIYbu9CN58gwmOS2JdRt5+Gsos9jvlpjB4Vjfvsw+SZv8HE6a+VlWfn5JK8/ju8/hqNywffkVT8Oh7vd6S1rlxh+zqFi6NZdaIhjuMcUHwVzcSkW1j3tqE7QMvWLJveFcXRH/H6azTuk/aSbWxP8BxL7eZj5R0OZ1uGBqs+PnjU7TGEEC+RapKKOX7eXTEtyGRHzIOzvef78CaHWROYRD3uJMyVUxf411WA30mMuci5xub0612xjuL6Lyz87g6X7gF37pNVVLmV3ym+V8M2MbevEh9zi0v3oPhqAUlZGpTNX61QRXOvpijdcWqn4FpWIgk11DIw0v2kstKIXrmazYdrarMamovELr7KxVtQfPIciVkalM0fJPTiXRdZvauE6wA3bhF+tACaG2FdVuEGx7IgNucmFOexaxf8VKwBw8aYAK3f6Yj13YtErfiV60DxpauEHsxHYduB0dWEs+FQNiVm1rgNqeNzCCFeGo0qn+g9I4QRnYs5sGguO0pPOs4isJ8hR1Zoz9XnBH3x9bsPDu7d5oYabFo3AR70FIouq7n0ODe5riap/OG9+3Vs4E+YGYG6YNdDylcTEWNHmPdUog9PICclifUrlhOXVcfb5BdUSFqFmruU70IYOrYnbFxnrM2bPEj0xeqHNld5JszauAkYdiDomw4EVbxx9Q3E5nHtgzYYmNb2AYQQL5sKSUXlvYB5Q405E72EaWWfZj2ZO60nyqMbmR9TtYHn0r3fKK7nW+xb5Itz5CACpvvg2deD+ZGOOC0cSdD2OjRy9/7D42xqSdh0e1Q5qSxbdJHEn3+DsQNIcqljoPmnmfphBrWaJbmsQYMSI8s63kMI8dIoG/5SeS9g42RbCr9fgu/KI+Wq9MPGQoFRjwls1S05ntJDCUZdmbJnCyu99RuQYfPGDw4avYqxEeRffPj8yNNRiLoEFMruNVe7vIuIj3xx6RtGslqFk7uX/kLoqaKNooDUFee1CQVwMK95tVplqZeKwdgIh6a1vMBHhSlFqH+uY6xCiJeGNqk4BrDM15bCHyOYuvhIpSoR+AzwoG+5P8uPFoE6g+UDRjJJz72XFj3b42fRAGiAq3dr2t/NZ+/BOjbSqAHNGzUAFDRXPloc+WoNyvbmuDQCaEDLCu3Ec/pnaNnOlWp/aR/iz/IQHwbZtwDAdlh33XBZdqWKPqzfncTxlJUE1jXA63cpwphOw5piCLQeZMvEHs3q1ETxvzNILW6Jx5y2OOimalo7tiBw7OvV1nfr24ZmJRc4HlvXYIUQL4tGACNG9qatgQIGf8zWwR9XqHC+8rLienbu1A26THBkW+mS4q/OsrXGSfPymvDprB70NCo9tmD8JxaM5zZH1qYzN6f2ccRvP0s/f1sCQlsSwG9cOZiO77clutIrbEg5hecHjsweBv5VhrSUWA70IMJ9gu64iGsZcQTP0uNS3JMZbNz7OhPd/kK8G3D9Als2nMbl/cZ/eGmZW4XMWPxfFk92JOxLR+05zR3yjh6oprIXw7uacDMjigh9xC+EeCE95HsqT0Nzli16AxL2M3XP046lNroTGhOGp0Eyfu7z2fe0w6lXLRj1+TqCbLMJ83mRv+gphHhc8u6vR3aM4MnrSFY4Exbp/0J/09wpJIwpXQvZNlMSihCiZlWWFIs6uByL/5hsBnVVUmIBvJAfuB0gZSNTtuxiX12XRAshXjrP0PCXEEKI550MfwkhhNAbSSpCCCH0RpKKEEIIvZGkIoQQQm8kqQghhNAbSSpCCCH0RpKKEEIIvfn/QQ7dmaswQyAAAAAASUVORK5CYII=;" vertex="1" parent="1">
                    <mxGeometry x="520" y="340" width="405" height="532" as="geometry"/>
                </mxCell>
            </root>
        </mxGraphModel>
    </diagram>
</mxfile>